<svg height="600" width="600">
<line x1="200" y1="118" x2="185" y2="135" stroke="red" stroke-width="2" />
<line x1="185" y1="135" x2="162" y2="162" stroke="red" stroke-width="2" />
<line x1="200" y1="158" x2="185" y2="181" stroke="red" stroke-width="2" />
<line x1="14" y1="135" x2="37" y2="162" stroke="red" stroke-width="2" />
<line x1="181" y1="14" x2="182" y2="17" stroke="red" stroke-width="2" />
<line x1="182" y1="17" x2="185" y2="64" stroke="red" stroke-width="2" />
<line x1="185" y1="64" x2="188" y2="100" stroke="red" stroke-width="2" />
<line x1="14" y1="181" x2="17" y2="182" stroke="red" stroke-width="2" />
<line x1="17" y1="182" x2="64" y2="185" stroke="red" stroke-width="2" />
<line x1="64" y1="185" x2="100" y2="188" stroke="red" stroke-width="2" />
<line x1="135" y1="14" x2="162" y2="37" stroke="red" stroke-width="2" />
<line x1="118" y1="200" x2="135" y2="185" stroke="red" stroke-width="2" />
<line x1="135" y1="185" x2="162" y2="162" stroke="red" stroke-width="2" />
<line x1="158" y1="200" x2="181" y2="185" stroke="red" stroke-width="2" />
<line x1="14" y1="18" x2="17" y2="17" stroke="red" stroke-width="2" />
<line x1="17" y1="17" x2="64" y2="14" stroke="red" stroke-width="2" />
<line x1="64" y1="14" x2="100" y2="11" stroke="red" stroke-width="2" />
<line x1="180" y1="199" x2="181" y2="185" stroke="red" stroke-width="2" />
<line x1="181" y1="185" x2="182" y2="182" stroke="red" stroke-width="2" />
<line x1="182" y1="182" x2="185" y2="135" stroke="red" stroke-width="2" />
<line x1="185" y1="135" x2="188" y2="100" stroke="red" stroke-width="2" />
<line x1="14" y1="64" x2="37" y2="37" stroke="red" stroke-width="2" />
<line x1="200" y1="81" x2="185" y2="64" stroke="red" stroke-width="2" />
<line x1="185" y1="64" x2="162" y2="37" stroke="red" stroke-width="2" />
<line x1="200" y1="41" x2="185" y2="18" stroke="red" stroke-width="2" />
<line x1="19" y1="200" x2="18" y2="185" stroke="red" stroke-width="2" />
<line x1="18" y1="185" x2="17" y2="182" stroke="red" stroke-width="2" />
<line x1="17" y1="182" x2="14" y2="135" stroke="red" stroke-width="2" />
<line x1="14" y1="135" x2="11" y2="100" stroke="red" stroke-width="2" />
<line x1="199" y1="19" x2="185" y2="18" stroke="red" stroke-width="2" />
<line x1="185" y1="18" x2="182" y2="17" stroke="red" stroke-width="2" />
<line x1="182" y1="17" x2="135" y2="14" stroke="red" stroke-width="2" />
<line x1="135" y1="14" x2="100" y2="11" stroke="red" stroke-width="2" />
<line x1="81" y1="200" x2="64" y2="185" stroke="red" stroke-width="2" />
<line x1="64" y1="185" x2="37" y2="162" stroke="red" stroke-width="2" />
<line x1="41" y1="200" x2="18" y2="185" stroke="red" stroke-width="2" />
<line x1="64" y1="14" x2="37" y2="37" stroke="red" stroke-width="2" />
<line x1="200" y1="180" x2="185" y2="181" stroke="red" stroke-width="2" />
<line x1="185" y1="181" x2="182" y2="182" stroke="red" stroke-width="2" />
<line x1="182" y1="182" x2="135" y2="185" stroke="red" stroke-width="2" />
<line x1="135" y1="185" x2="100" y2="188" stroke="red" stroke-width="2" />
<line x1="18" y1="14" x2="17" y2="17" stroke="red" stroke-width="2" />
<line x1="17" y1="17" x2="14" y2="64" stroke="red" stroke-width="2" />
<line x1="14" y1="64" x2="11" y2="100" stroke="red" stroke-width="2" />
<line x1="400" y1="118" x2="385" y2="135" stroke="red" stroke-width="2" />
<line x1="385" y1="135" x2="362" y2="162" stroke="red" stroke-width="2" />
<line x1="400" y1="158" x2="385" y2="181" stroke="red" stroke-width="2" />
<line x1="200" y1="118" x2="214" y2="135" stroke="red" stroke-width="2" />
<line x1="214" y1="135" x2="237" y2="162" stroke="red" stroke-width="2" />
<line x1="200" y1="158" x2="214" y2="181" stroke="red" stroke-width="2" />
<line x1="381" y1="14" x2="382" y2="17" stroke="red" stroke-width="2" />
<line x1="382" y1="17" x2="385" y2="64" stroke="red" stroke-width="2" />
<line x1="385" y1="64" x2="388" y2="100" stroke="red" stroke-width="2" />
<line x1="200" y1="180" x2="214" y2="181" stroke="red" stroke-width="2" />
<line x1="214" y1="181" x2="217" y2="182" stroke="red" stroke-width="2" />
<line x1="217" y1="182" x2="264" y2="185" stroke="red" stroke-width="2" />
<line x1="264" y1="185" x2="300" y2="188" stroke="red" stroke-width="2" />
<line x1="335" y1="14" x2="362" y2="37" stroke="red" stroke-width="2" />
<line x1="318" y1="200" x2="335" y2="185" stroke="red" stroke-width="2" />
<line x1="335" y1="185" x2="362" y2="162" stroke="red" stroke-width="2" />
<line x1="358" y1="200" x2="381" y2="185" stroke="red" stroke-width="2" />
<line x1="199" y1="19" x2="214" y2="18" stroke="red" stroke-width="2" />
<line x1="214" y1="18" x2="217" y2="17" stroke="red" stroke-width="2" />
<line x1="217" y1="17" x2="264" y2="14" stroke="red" stroke-width="2" />
<line x1="264" y1="14" x2="300" y2="11" stroke="red" stroke-width="2" />
<line x1="380" y1="199" x2="381" y2="185" stroke="red" stroke-width="2" />
<line x1="381" y1="185" x2="382" y2="182" stroke="red" stroke-width="2" />
<line x1="382" y1="182" x2="385" y2="135" stroke="red" stroke-width="2" />
<line x1="385" y1="135" x2="388" y2="100" stroke="red" stroke-width="2" />
<line x1="200" y1="81" x2="214" y2="64" stroke="red" stroke-width="2" />
<line x1="214" y1="64" x2="237" y2="37" stroke="red" stroke-width="2" />
<line x1="200" y1="41" x2="214" y2="18" stroke="red" stroke-width="2" />
<line x1="400" y1="81" x2="385" y2="64" stroke="red" stroke-width="2" />
<line x1="385" y1="64" x2="362" y2="37" stroke="red" stroke-width="2" />
<line x1="400" y1="41" x2="385" y2="18" stroke="red" stroke-width="2" />
<line x1="219" y1="200" x2="218" y2="185" stroke="red" stroke-width="2" />
<line x1="218" y1="185" x2="217" y2="182" stroke="red" stroke-width="2" />
<line x1="217" y1="182" x2="214" y2="135" stroke="red" stroke-width="2" />
<line x1="214" y1="135" x2="211" y2="100" stroke="red" stroke-width="2" />
<line x1="399" y1="19" x2="385" y2="18" stroke="red" stroke-width="2" />
<line x1="385" y1="18" x2="382" y2="17" stroke="red" stroke-width="2" />
<line x1="382" y1="17" x2="335" y2="14" stroke="red" stroke-width="2" />
<line x1="335" y1="14" x2="300" y2="11" stroke="red" stroke-width="2" />
<line x1="281" y1="200" x2="264" y2="185" stroke="red" stroke-width="2" />
<line x1="264" y1="185" x2="237" y2="162" stroke="red" stroke-width="2" />
<line x1="241" y1="200" x2="218" y2="185" stroke="red" stroke-width="2" />
<line x1="264" y1="14" x2="237" y2="37" stroke="red" stroke-width="2" />
<line x1="400" y1="180" x2="385" y2="181" stroke="red" stroke-width="2" />
<line x1="385" y1="181" x2="382" y2="182" stroke="red" stroke-width="2" />
<line x1="382" y1="182" x2="335" y2="185" stroke="red" stroke-width="2" />
<line x1="335" y1="185" x2="300" y2="188" stroke="red" stroke-width="2" />
<line x1="218" y1="14" x2="217" y2="17" stroke="red" stroke-width="2" />
<line x1="217" y1="17" x2="214" y2="64" stroke="red" stroke-width="2" />
<line x1="214" y1="64" x2="211" y2="99" stroke="red" stroke-width="2" />
<line x1="585" y1="135" x2="562" y2="162" stroke="red" stroke-width="2" />
<line x1="400" y1="118" x2="414" y2="135" stroke="red" stroke-width="2" />
<line x1="414" y1="135" x2="437" y2="162" stroke="red" stroke-width="2" />
<line x1="400" y1="158" x2="414" y2="181" stroke="red" stroke-width="2" />
<line x1="581" y1="14" x2="582" y2="17" stroke="red" stroke-width="2" />
<line x1="582" y1="17" x2="585" y2="64" stroke="red" stroke-width="2" />
<line x1="585" y1="64" x2="588" y2="99" stroke="red" stroke-width="2" />
<line x1="400" y1="180" x2="414" y2="181" stroke="red" stroke-width="2" />
<line x1="414" y1="181" x2="417" y2="182" stroke="red" stroke-width="2" />
<line x1="417" y1="182" x2="464" y2="185" stroke="red" stroke-width="2" />
<line x1="464" y1="185" x2="500" y2="188" stroke="red" stroke-width="2" />
<line x1="535" y1="14" x2="562" y2="37" stroke="red" stroke-width="2" />
<line x1="518" y1="200" x2="535" y2="185" stroke="red" stroke-width="2" />
<line x1="535" y1="185" x2="562" y2="162" stroke="red" stroke-width="2" />
<line x1="558" y1="200" x2="581" y2="185" stroke="red" stroke-width="2" />
<line x1="399" y1="19" x2="414" y2="18" stroke="red" stroke-width="2" />
<line x1="414" y1="18" x2="417" y2="17" stroke="red" stroke-width="2" />
<line x1="417" y1="17" x2="464" y2="14" stroke="red" stroke-width="2" />
<line x1="464" y1="14" x2="500" y2="11" stroke="red" stroke-width="2" />
<line x1="580" y1="199" x2="581" y2="185" stroke="red" stroke-width="2" />
<line x1="581" y1="185" x2="582" y2="182" stroke="red" stroke-width="2" />
<line x1="582" y1="182" x2="585" y2="135" stroke="red" stroke-width="2" />
<line x1="585" y1="135" x2="588" y2="99" stroke="red" stroke-width="2" />
<line x1="400" y1="81" x2="414" y2="64" stroke="red" stroke-width="2" />
<line x1="414" y1="64" x2="437" y2="37" stroke="red" stroke-width="2" />
<line x1="400" y1="41" x2="414" y2="18" stroke="red" stroke-width="2" />
<line x1="585" y1="64" x2="562" y2="37" stroke="red" stroke-width="2" />
<line x1="419" y1="200" x2="418" y2="185" stroke="red" stroke-width="2" />
<line x1="418" y1="185" x2="417" y2="182" stroke="red" stroke-width="2" />
<line x1="417" y1="182" x2="414" y2="135" stroke="red" stroke-width="2" />
<line x1="414" y1="135" x2="411" y2="100" stroke="red" stroke-width="2" />
<line x1="585" y1="18" x2="582" y2="17" stroke="red" stroke-width="2" />
<line x1="582" y1="17" x2="535" y2="14" stroke="red" stroke-width="2" />
<line x1="535" y1="14" x2="500" y2="11" stroke="red" stroke-width="2" />
<line x1="481" y1="200" x2="464" y2="185" stroke="red" stroke-width="2" />
<line x1="464" y1="185" x2="437" y2="162" stroke="red" stroke-width="2" />
<line x1="441" y1="200" x2="418" y2="185" stroke="red" stroke-width="2" />
<line x1="464" y1="14" x2="437" y2="37" stroke="red" stroke-width="2" />
<line x1="585" y1="181" x2="582" y2="182" stroke="red" stroke-width="2" />
<line x1="582" y1="182" x2="535" y2="185" stroke="red" stroke-width="2" />
<line x1="535" y1="185" x2="500" y2="188" stroke="red" stroke-width="2" />
<line x1="418" y1="14" x2="417" y2="17" stroke="red" stroke-width="2" />
<line x1="417" y1="17" x2="414" y2="64" stroke="red" stroke-width="2" />
<line x1="414" y1="64" x2="411" y2="99" stroke="red" stroke-width="2" />
<line x1="200" y1="318" x2="185" y2="335" stroke="red" stroke-width="2" />
<line x1="185" y1="335" x2="162" y2="362" stroke="red" stroke-width="2" />
<line x1="200" y1="358" x2="185" y2="381" stroke="red" stroke-width="2" />
<line x1="14" y1="335" x2="37" y2="362" stroke="red" stroke-width="2" />
<line x1="180" y1="199" x2="181" y2="214" stroke="red" stroke-width="2" />
<line x1="181" y1="214" x2="182" y2="217" stroke="red" stroke-width="2" />
<line x1="182" y1="217" x2="185" y2="264" stroke="red" stroke-width="2" />
<line x1="185" y1="264" x2="188" y2="300" stroke="red" stroke-width="2" />
<line x1="14" y1="381" x2="17" y2="382" stroke="red" stroke-width="2" />
<line x1="17" y1="382" x2="64" y2="385" stroke="red" stroke-width="2" />
<line x1="64" y1="385" x2="99" y2="388" stroke="red" stroke-width="2" />
<line x1="118" y1="200" x2="135" y2="214" stroke="red" stroke-width="2" />
<line x1="135" y1="214" x2="162" y2="237" stroke="red" stroke-width="2" />
<line x1="158" y1="200" x2="181" y2="214" stroke="red" stroke-width="2" />
<line x1="118" y1="400" x2="135" y2="385" stroke="red" stroke-width="2" />
<line x1="135" y1="385" x2="162" y2="362" stroke="red" stroke-width="2" />
<line x1="158" y1="400" x2="181" y2="385" stroke="red" stroke-width="2" />
<line x1="14" y1="218" x2="17" y2="217" stroke="red" stroke-width="2" />
<line x1="17" y1="217" x2="64" y2="214" stroke="red" stroke-width="2" />
<line x1="64" y1="214" x2="100" y2="211" stroke="red" stroke-width="2" />
<line x1="180" y1="399" x2="181" y2="385" stroke="red" stroke-width="2" />
<line x1="181" y1="385" x2="182" y2="382" stroke="red" stroke-width="2" />
<line x1="182" y1="382" x2="185" y2="335" stroke="red" stroke-width="2" />
<line x1="185" y1="335" x2="188" y2="300" stroke="red" stroke-width="2" />
<line x1="14" y1="264" x2="37" y2="237" stroke="red" stroke-width="2" />
<line x1="199" y1="281" x2="185" y2="264" stroke="red" stroke-width="2" />
<line x1="185" y1="264" x2="162" y2="237" stroke="red" stroke-width="2" />
<line x1="200" y1="241" x2="185" y2="218" stroke="red" stroke-width="2" />
<line x1="19" y1="400" x2="18" y2="385" stroke="red" stroke-width="2" />
<line x1="18" y1="385" x2="17" y2="382" stroke="red" stroke-width="2" />
<line x1="17" y1="382" x2="14" y2="335" stroke="red" stroke-width="2" />
<line x1="14" y1="335" x2="11" y2="300" stroke="red" stroke-width="2" />
<line x1="200" y1="219" x2="185" y2="218" stroke="red" stroke-width="2" />
<line x1="185" y1="218" x2="182" y2="217" stroke="red" stroke-width="2" />
<line x1="182" y1="217" x2="135" y2="214" stroke="red" stroke-width="2" />
<line x1="135" y1="214" x2="100" y2="211" stroke="red" stroke-width="2" />
<line x1="81" y1="400" x2="64" y2="385" stroke="red" stroke-width="2" />
<line x1="64" y1="385" x2="37" y2="362" stroke="red" stroke-width="2" />
<line x1="41" y1="400" x2="18" y2="385" stroke="red" stroke-width="2" />
<line x1="81" y1="200" x2="64" y2="214" stroke="red" stroke-width="2" />
<line x1="64" y1="214" x2="37" y2="237" stroke="red" stroke-width="2" />
<line x1="41" y1="200" x2="18" y2="214" stroke="red" stroke-width="2" />
<line x1="200" y1="380" x2="185" y2="381" stroke="red" stroke-width="2" />
<line x1="185" y1="381" x2="182" y2="382" stroke="red" stroke-width="2" />
<line x1="182" y1="382" x2="135" y2="385" stroke="red" stroke-width="2" />
<line x1="135" y1="385" x2="100" y2="388" stroke="red" stroke-width="2" />
<line x1="19" y1="200" x2="18" y2="214" stroke="red" stroke-width="2" />
<line x1="18" y1="214" x2="17" y2="217" stroke="red" stroke-width="2" />
<line x1="17" y1="217" x2="14" y2="264" stroke="red" stroke-width="2" />
<line x1="14" y1="264" x2="11" y2="300" stroke="red" stroke-width="2" />
<line x1="400" y1="318" x2="385" y2="335" stroke="red" stroke-width="2" />
<line x1="385" y1="335" x2="362" y2="362" stroke="red" stroke-width="2" />
<line x1="400" y1="358" x2="385" y2="381" stroke="red" stroke-width="2" />
<line x1="200" y1="318" x2="214" y2="335" stroke="red" stroke-width="2" />
<line x1="214" y1="335" x2="237" y2="362" stroke="red" stroke-width="2" />
<line x1="200" y1="358" x2="214" y2="381" stroke="red" stroke-width="2" />
<line x1="380" y1="199" x2="381" y2="214" stroke="red" stroke-width="2" />
<line x1="381" y1="214" x2="382" y2="217" stroke="red" stroke-width="2" />
<line x1="382" y1="217" x2="385" y2="264" stroke="red" stroke-width="2" />
<line x1="385" y1="264" x2="388" y2="300" stroke="red" stroke-width="2" />
<line x1="200" y1="380" x2="214" y2="381" stroke="red" stroke-width="2" />
<line x1="214" y1="381" x2="217" y2="382" stroke="red" stroke-width="2" />
<line x1="217" y1="382" x2="264" y2="385" stroke="red" stroke-width="2" />
<line x1="264" y1="385" x2="300" y2="388" stroke="red" stroke-width="2" />
<line x1="318" y1="200" x2="335" y2="214" stroke="red" stroke-width="2" />
<line x1="335" y1="214" x2="362" y2="237" stroke="red" stroke-width="2" />
<line x1="358" y1="200" x2="381" y2="214" stroke="red" stroke-width="2" />
<line x1="318" y1="400" x2="335" y2="385" stroke="red" stroke-width="2" />
<line x1="335" y1="385" x2="362" y2="362" stroke="red" stroke-width="2" />
<line x1="358" y1="400" x2="381" y2="385" stroke="red" stroke-width="2" />
<line x1="200" y1="219" x2="214" y2="218" stroke="red" stroke-width="2" />
<line x1="214" y1="218" x2="217" y2="217" stroke="red" stroke-width="2" />
<line x1="217" y1="217" x2="264" y2="214" stroke="red" stroke-width="2" />
<line x1="264" y1="214" x2="300" y2="211" stroke="red" stroke-width="2" />
<line x1="380" y1="399" x2="381" y2="385" stroke="red" stroke-width="2" />
<line x1="381" y1="385" x2="382" y2="382" stroke="red" stroke-width="2" />
<line x1="382" y1="382" x2="385" y2="335" stroke="red" stroke-width="2" />
<line x1="385" y1="335" x2="388" y2="300" stroke="red" stroke-width="2" />
<line x1="199" y1="281" x2="214" y2="264" stroke="red" stroke-width="2" />
<line x1="214" y1="264" x2="237" y2="237" stroke="red" stroke-width="2" />
<line x1="200" y1="241" x2="214" y2="218" stroke="red" stroke-width="2" />
<line x1="400" y1="281" x2="385" y2="264" stroke="red" stroke-width="2" />
<line x1="385" y1="264" x2="362" y2="237" stroke="red" stroke-width="2" />
<line x1="400" y1="241" x2="385" y2="218" stroke="red" stroke-width="2" />
<line x1="219" y1="400" x2="218" y2="385" stroke="red" stroke-width="2" />
<line x1="218" y1="385" x2="217" y2="382" stroke="red" stroke-width="2" />
<line x1="217" y1="382" x2="214" y2="335" stroke="red" stroke-width="2" />
<line x1="214" y1="335" x2="211" y2="300" stroke="red" stroke-width="2" />
<line x1="400" y1="219" x2="385" y2="218" stroke="red" stroke-width="2" />
<line x1="385" y1="218" x2="382" y2="217" stroke="red" stroke-width="2" />
<line x1="382" y1="217" x2="335" y2="214" stroke="red" stroke-width="2" />
<line x1="335" y1="214" x2="300" y2="211" stroke="red" stroke-width="2" />
<line x1="281" y1="400" x2="264" y2="385" stroke="red" stroke-width="2" />
<line x1="264" y1="385" x2="237" y2="362" stroke="red" stroke-width="2" />
<line x1="241" y1="400" x2="218" y2="385" stroke="red" stroke-width="2" />
<line x1="281" y1="200" x2="264" y2="214" stroke="red" stroke-width="2" />
<line x1="264" y1="214" x2="237" y2="237" stroke="red" stroke-width="2" />
<line x1="241" y1="200" x2="218" y2="214" stroke="red" stroke-width="2" />
<line x1="400" y1="380" x2="385" y2="381" stroke="red" stroke-width="2" />
<line x1="385" y1="381" x2="382" y2="382" stroke="red" stroke-width="2" />
<line x1="382" y1="382" x2="335" y2="385" stroke="red" stroke-width="2" />
<line x1="335" y1="385" x2="300" y2="388" stroke="red" stroke-width="2" />
<line x1="219" y1="200" x2="218" y2="214" stroke="red" stroke-width="2" />
<line x1="218" y1="214" x2="217" y2="217" stroke="red" stroke-width="2" />
<line x1="217" y1="217" x2="214" y2="264" stroke="red" stroke-width="2" />
<line x1="214" y1="264" x2="211" y2="300" stroke="red" stroke-width="2" />
<line x1="585" y1="335" x2="562" y2="362" stroke="red" stroke-width="2" />
<line x1="400" y1="318" x2="414" y2="335" stroke="red" stroke-width="2" />
<line x1="414" y1="335" x2="437" y2="362" stroke="red" stroke-width="2" />
<line x1="400" y1="358" x2="414" y2="381" stroke="red" stroke-width="2" />
<line x1="580" y1="199" x2="581" y2="214" stroke="red" stroke-width="2" />
<line x1="581" y1="214" x2="582" y2="217" stroke="red" stroke-width="2" />
<line x1="582" y1="217" x2="585" y2="264" stroke="red" stroke-width="2" />
<line x1="585" y1="264" x2="588" y2="300" stroke="red" stroke-width="2" />
<line x1="400" y1="380" x2="414" y2="381" stroke="red" stroke-width="2" />
<line x1="414" y1="381" x2="417" y2="382" stroke="red" stroke-width="2" />
<line x1="417" y1="382" x2="464" y2="385" stroke="red" stroke-width="2" />
<line x1="464" y1="385" x2="500" y2="388" stroke="red" stroke-width="2" />
<line x1="518" y1="200" x2="535" y2="214" stroke="red" stroke-width="2" />
<line x1="535" y1="214" x2="562" y2="237" stroke="red" stroke-width="2" />
<line x1="558" y1="200" x2="581" y2="214" stroke="red" stroke-width="2" />
<line x1="518" y1="400" x2="535" y2="385" stroke="red" stroke-width="2" />
<line x1="535" y1="385" x2="562" y2="362" stroke="red" stroke-width="2" />
<line x1="558" y1="400" x2="581" y2="385" stroke="red" stroke-width="2" />
<line x1="400" y1="219" x2="414" y2="218" stroke="red" stroke-width="2" />
<line x1="414" y1="218" x2="417" y2="217" stroke="red" stroke-width="2" />
<line x1="417" y1="217" x2="464" y2="214" stroke="red" stroke-width="2" />
<line x1="464" y1="214" x2="500" y2="211" stroke="red" stroke-width="2" />
<line x1="580" y1="399" x2="581" y2="385" stroke="red" stroke-width="2" />
<line x1="581" y1="385" x2="582" y2="382" stroke="red" stroke-width="2" />
<line x1="582" y1="382" x2="585" y2="335" stroke="red" stroke-width="2" />
<line x1="585" y1="335" x2="588" y2="300" stroke="red" stroke-width="2" />
<line x1="400" y1="281" x2="414" y2="264" stroke="red" stroke-width="2" />
<line x1="414" y1="264" x2="437" y2="237" stroke="red" stroke-width="2" />
<line x1="400" y1="241" x2="414" y2="218" stroke="red" stroke-width="2" />
<line x1="585" y1="264" x2="562" y2="237" stroke="red" stroke-width="2" />
<line x1="419" y1="400" x2="418" y2="385" stroke="red" stroke-width="2" />
<line x1="418" y1="385" x2="417" y2="382" stroke="red" stroke-width="2" />
<line x1="417" y1="382" x2="414" y2="335" stroke="red" stroke-width="2" />
<line x1="414" y1="335" x2="411" y2="300" stroke="red" stroke-width="2" />
<line x1="585" y1="218" x2="582" y2="217" stroke="red" stroke-width="2" />
<line x1="582" y1="217" x2="535" y2="214" stroke="red" stroke-width="2" />
<line x1="535" y1="214" x2="500" y2="211" stroke="red" stroke-width="2" />
<line x1="481" y1="400" x2="464" y2="385" stroke="red" stroke-width="2" />
<line x1="464" y1="385" x2="437" y2="362" stroke="red" stroke-width="2" />
<line x1="441" y1="400" x2="418" y2="385" stroke="red" stroke-width="2" />
<line x1="481" y1="200" x2="464" y2="214" stroke="red" stroke-width="2" />
<line x1="464" y1="214" x2="437" y2="237" stroke="red" stroke-width="2" />
<line x1="441" y1="200" x2="418" y2="214" stroke="red" stroke-width="2" />
<line x1="585" y1="381" x2="582" y2="382" stroke="red" stroke-width="2" />
<line x1="582" y1="382" x2="535" y2="385" stroke="red" stroke-width="2" />
<line x1="535" y1="385" x2="500" y2="388" stroke="red" stroke-width="2" />
<line x1="419" y1="200" x2="418" y2="214" stroke="red" stroke-width="2" />
<line x1="418" y1="214" x2="417" y2="217" stroke="red" stroke-width="2" />
<line x1="417" y1="217" x2="414" y2="264" stroke="red" stroke-width="2" />
<line x1="414" y1="264" x2="411" y2="300" stroke="red" stroke-width="2" />
<line x1="200" y1="518" x2="185" y2="535" stroke="red" stroke-width="2" />
<line x1="185" y1="535" x2="162" y2="562" stroke="red" stroke-width="2" />
<line x1="200" y1="558" x2="185" y2="581" stroke="red" stroke-width="2" />
<line x1="14" y1="535" x2="37" y2="562" stroke="red" stroke-width="2" />
<line x1="180" y1="399" x2="181" y2="414" stroke="red" stroke-width="2" />
<line x1="181" y1="414" x2="182" y2="417" stroke="red" stroke-width="2" />
<line x1="182" y1="417" x2="185" y2="464" stroke="red" stroke-width="2" />
<line x1="185" y1="464" x2="188" y2="500" stroke="red" stroke-width="2" />
<line x1="14" y1="581" x2="17" y2="582" stroke="red" stroke-width="2" />
<line x1="17" y1="582" x2="64" y2="585" stroke="red" stroke-width="2" />
<line x1="64" y1="585" x2="100" y2="588" stroke="red" stroke-width="2" />
<line x1="118" y1="400" x2="135" y2="414" stroke="red" stroke-width="2" />
<line x1="135" y1="414" x2="162" y2="437" stroke="red" stroke-width="2" />
<line x1="158" y1="400" x2="181" y2="414" stroke="red" stroke-width="2" />
<line x1="135" y1="585" x2="162" y2="562" stroke="red" stroke-width="2" />
<line x1="14" y1="418" x2="17" y2="417" stroke="red" stroke-width="2" />
<line x1="17" y1="417" x2="64" y2="414" stroke="red" stroke-width="2" />
<line x1="64" y1="414" x2="100" y2="411" stroke="red" stroke-width="2" />
<line x1="181" y1="585" x2="182" y2="582" stroke="red" stroke-width="2" />
<line x1="182" y1="582" x2="185" y2="535" stroke="red" stroke-width="2" />
<line x1="185" y1="535" x2="188" y2="500" stroke="red" stroke-width="2" />
<line x1="14" y1="464" x2="37" y2="437" stroke="red" stroke-width="2" />
<line x1="199" y1="481" x2="185" y2="464" stroke="red" stroke-width="2" />
<line x1="185" y1="464" x2="162" y2="437" stroke="red" stroke-width="2" />
<line x1="200" y1="441" x2="185" y2="418" stroke="red" stroke-width="2" />
<line x1="18" y1="585" x2="17" y2="582" stroke="red" stroke-width="2" />
<line x1="17" y1="582" x2="14" y2="535" stroke="red" stroke-width="2" />
<line x1="14" y1="535" x2="11" y2="500" stroke="red" stroke-width="2" />
<line x1="200" y1="419" x2="185" y2="418" stroke="red" stroke-width="2" />
<line x1="185" y1="418" x2="182" y2="417" stroke="red" stroke-width="2" />
<line x1="182" y1="417" x2="135" y2="414" stroke="red" stroke-width="2" />
<line x1="135" y1="414" x2="100" y2="411" stroke="red" stroke-width="2" />
<line x1="64" y1="585" x2="37" y2="562" stroke="red" stroke-width="2" />
<line x1="81" y1="400" x2="64" y2="414" stroke="red" stroke-width="2" />
<line x1="64" y1="414" x2="37" y2="437" stroke="red" stroke-width="2" />
<line x1="41" y1="400" x2="18" y2="414" stroke="red" stroke-width="2" />
<line x1="200" y1="580" x2="185" y2="581" stroke="red" stroke-width="2" />
<line x1="185" y1="581" x2="182" y2="582" stroke="red" stroke-width="2" />
<line x1="182" y1="582" x2="135" y2="585" stroke="red" stroke-width="2" />
<line x1="135" y1="585" x2="100" y2="588" stroke="red" stroke-width="2" />
<line x1="19" y1="400" x2="18" y2="414" stroke="red" stroke-width="2" />
<line x1="18" y1="414" x2="17" y2="417" stroke="red" stroke-width="2" />
<line x1="17" y1="417" x2="14" y2="464" stroke="red" stroke-width="2" />
<line x1="14" y1="464" x2="11" y2="500" stroke="red" stroke-width="2" />
<line x1="400" y1="518" x2="385" y2="535" stroke="red" stroke-width="2" />
<line x1="385" y1="535" x2="362" y2="562" stroke="red" stroke-width="2" />
<line x1="400" y1="558" x2="385" y2="581" stroke="red" stroke-width="2" />
<line x1="200" y1="518" x2="214" y2="535" stroke="red" stroke-width="2" />
<line x1="214" y1="535" x2="237" y2="562" stroke="red" stroke-width="2" />
<line x1="200" y1="558" x2="214" y2="581" stroke="red" stroke-width="2" />
<line x1="380" y1="399" x2="381" y2="414" stroke="red" stroke-width="2" />
<line x1="381" y1="414" x2="382" y2="417" stroke="red" stroke-width="2" />
<line x1="382" y1="417" x2="385" y2="464" stroke="red" stroke-width="2" />
<line x1="385" y1="464" x2="388" y2="500" stroke="red" stroke-width="2" />
<line x1="200" y1="580" x2="214" y2="581" stroke="red" stroke-width="2" />
<line x1="214" y1="581" x2="217" y2="582" stroke="red" stroke-width="2" />
<line x1="217" y1="582" x2="264" y2="585" stroke="red" stroke-width="2" />
<line x1="264" y1="585" x2="300" y2="588" stroke="red" stroke-width="2" />
<line x1="318" y1="400" x2="335" y2="414" stroke="red" stroke-width="2" />
<line x1="335" y1="414" x2="362" y2="437" stroke="red" stroke-width="2" />
<line x1="358" y1="400" x2="381" y2="414" stroke="red" stroke-width="2" />
<line x1="335" y1="585" x2="362" y2="562" stroke="red" stroke-width="2" />
<line x1="200" y1="419" x2="214" y2="418" stroke="red" stroke-width="2" />
<line x1="214" y1="418" x2="217" y2="417" stroke="red" stroke-width="2" />
<line x1="217" y1="417" x2="264" y2="414" stroke="red" stroke-width="2" />
<line x1="264" y1="414" x2="300" y2="411" stroke="red" stroke-width="2" />
<line x1="381" y1="585" x2="382" y2="582" stroke="red" stroke-width="2" />
<line x1="382" y1="582" x2="385" y2="535" stroke="red" stroke-width="2" />
<line x1="385" y1="535" x2="388" y2="500" stroke="red" stroke-width="2" />
<line x1="199" y1="481" x2="214" y2="464" stroke="red" stroke-width="2" />
<line x1="214" y1="464" x2="237" y2="437" stroke="red" stroke-width="2" />
<line x1="200" y1="441" x2="214" y2="418" stroke="red" stroke-width="2" />
<line x1="400" y1="481" x2="385" y2="464" stroke="red" stroke-width="2" />
<line x1="385" y1="464" x2="362" y2="437" stroke="red" stroke-width="2" />
<line x1="400" y1="441" x2="385" y2="418" stroke="red" stroke-width="2" />
<line x1="218" y1="585" x2="217" y2="582" stroke="red" stroke-width="2" />
<line x1="217" y1="582" x2="214" y2="535" stroke="red" stroke-width="2" />
<line x1="214" y1="535" x2="211" y2="500" stroke="red" stroke-width="2" />
<line x1="400" y1="419" x2="385" y2="418" stroke="red" stroke-width="2" />
<line x1="385" y1="418" x2="382" y2="417" stroke="red" stroke-width="2" />
<line x1="382" y1="417" x2="335" y2="414" stroke="red" stroke-width="2" />
<line x1="335" y1="414" x2="300" y2="411" stroke="red" stroke-width="2" />
<line x1="264" y1="585" x2="237" y2="562" stroke="red" stroke-width="2" />
<line x1="281" y1="400" x2="264" y2="414" stroke="red" stroke-width="2" />
<line x1="264" y1="414" x2="237" y2="437" stroke="red" stroke-width="2" />
<line x1="241" y1="400" x2="218" y2="414" stroke="red" stroke-width="2" />
<line x1="400" y1="580" x2="385" y2="581" stroke="red" stroke-width="2" />
<line x1="385" y1="581" x2="382" y2="582" stroke="red" stroke-width="2" />
<line x1="382" y1="582" x2="335" y2="585" stroke="red" stroke-width="2" />
<line x1="335" y1="585" x2="300" y2="588" stroke="red" stroke-width="2" />
<line x1="219" y1="400" x2="218" y2="414" stroke="red" stroke-width="2" />
<line x1="218" y1="414" x2="217" y2="417" stroke="red" stroke-width="2" />
<line x1="217" y1="417" x2="214" y2="464" stroke="red" stroke-width="2" />
<line x1="214" y1="464" x2="211" y2="500" stroke="red" stroke-width="2" />
<line x1="585" y1="535" x2="562" y2="562" stroke="red" stroke-width="2" />
<line x1="400" y1="518" x2="414" y2="535" stroke="red" stroke-width="2" />
<line x1="414" y1="535" x2="437" y2="562" stroke="red" stroke-width="2" />
<line x1="400" y1="558" x2="414" y2="581" stroke="red" stroke-width="2" />
<line x1="580" y1="399" x2="581" y2="414" stroke="red" stroke-width="2" />
<line x1="581" y1="414" x2="582" y2="417" stroke="red" stroke-width="2" />
<line x1="582" y1="417" x2="585" y2="464" stroke="red" stroke-width="2" />
<line x1="585" y1="464" x2="588" y2="500" stroke="red" stroke-width="2" />
<line x1="400" y1="580" x2="414" y2="581" stroke="red" stroke-width="2" />
<line x1="414" y1="581" x2="417" y2="582" stroke="red" stroke-width="2" />
<line x1="417" y1="582" x2="464" y2="585" stroke="red" stroke-width="2" />
<line x1="464" y1="585" x2="500" y2="588" stroke="red" stroke-width="2" />
<line x1="518" y1="400" x2="535" y2="414" stroke="red" stroke-width="2" />
<line x1="535" y1="414" x2="562" y2="437" stroke="red" stroke-width="2" />
<line x1="558" y1="400" x2="581" y2="414" stroke="red" stroke-width="2" />
<line x1="535" y1="585" x2="562" y2="562" stroke="red" stroke-width="2" />
<line x1="400" y1="419" x2="414" y2="418" stroke="red" stroke-width="2" />
<line x1="414" y1="418" x2="417" y2="417" stroke="red" stroke-width="2" />
<line x1="417" y1="417" x2="464" y2="414" stroke="red" stroke-width="2" />
<line x1="464" y1="414" x2="500" y2="411" stroke="red" stroke-width="2" />
<line x1="581" y1="585" x2="582" y2="582" stroke="red" stroke-width="2" />
<line x1="582" y1="582" x2="585" y2="535" stroke="red" stroke-width="2" />
<line x1="585" y1="535" x2="588" y2="500" stroke="red" stroke-width="2" />
<line x1="400" y1="481" x2="414" y2="464" stroke="red" stroke-width="2" />
<line x1="414" y1="464" x2="437" y2="437" stroke="red" stroke-width="2" />
<line x1="400" y1="441" x2="414" y2="418" stroke="red" stroke-width="2" />
<line x1="585" y1="464" x2="562" y2="437" stroke="red" stroke-width="2" />
<line x1="418" y1="585" x2="417" y2="582" stroke="red" stroke-width="2" />
<line x1="417" y1="582" x2="414" y2="535" stroke="red" stroke-width="2" />
<line x1="414" y1="535" x2="411" y2="500" stroke="red" stroke-width="2" />
<line x1="585" y1="418" x2="582" y2="417" stroke="red" stroke-width="2" />
<line x1="582" y1="417" x2="535" y2="414" stroke="red" stroke-width="2" />
<line x1="535" y1="414" x2="500" y2="411" stroke="red" stroke-width="2" />
<line x1="464" y1="585" x2="437" y2="562" stroke="red" stroke-width="2" />
<line x1="481" y1="400" x2="464" y2="414" stroke="red" stroke-width="2" />
<line x1="464" y1="414" x2="437" y2="437" stroke="red" stroke-width="2" />
<line x1="441" y1="400" x2="418" y2="414" stroke="red" stroke-width="2" />
<line x1="585" y1="581" x2="582" y2="582" stroke="red" stroke-width="2" />
<line x1="582" y1="582" x2="535" y2="585" stroke="red" stroke-width="2" />
<line x1="535" y1="585" x2="500" y2="588" stroke="red" stroke-width="2" />
<line x1="419" y1="400" x2="418" y2="414" stroke="red" stroke-width="2" />
<line x1="418" y1="414" x2="417" y2="417" stroke="red" stroke-width="2" />
<line x1="417" y1="417" x2="414" y2="464" stroke="red" stroke-width="2" />
<line x1="414" y1="464" x2="411" y2="500" stroke="red" stroke-width="2" />
</svg>
