<svg height="600" width="600">
<line x1="138" y1="83" x2="143" y2="100" stroke="red" stroke-width="2" />
<line x1="143" y1="100" x2="147" y2="119" stroke="red" stroke-width="2" />
<line x1="147" y1="119" x2="157" y2="157" stroke="red" stroke-width="2" />
<line x1="61" y1="83" x2="57" y2="100" stroke="red" stroke-width="2" />
<line x1="57" y1="100" x2="52" y2="119" stroke="red" stroke-width="2" />
<line x1="52" y1="119" x2="42" y2="157" stroke="red" stroke-width="2" />
<line x1="200" y1="111" x2="181" y2="100" stroke="red" stroke-width="2" />
<line x1="181" y1="100" x2="147" y2="80" stroke="red" stroke-width="2" />
<line x1="147" y1="80" x2="130" y2="69" stroke="red" stroke-width="2" />
<line x1="130" y1="69" x2="116" y2="61" stroke="red" stroke-width="2" />
<line x1="111" y1="200" x2="99" y2="181" stroke="red" stroke-width="2" />
<line x1="99" y1="181" x2="80" y2="147" stroke="red" stroke-width="2" />
<line x1="80" y1="147" x2="69" y2="130" stroke="red" stroke-width="2" />
<line x1="69" y1="130" x2="61" y2="116" stroke="red" stroke-width="2" />
<line x1="83" y1="61" x2="100" y2="57" stroke="red" stroke-width="2" />
<line x1="100" y1="57" x2="119" y2="52" stroke="red" stroke-width="2" />
<line x1="119" y1="52" x2="157" y2="42" stroke="red" stroke-width="2" />
<line x1="83" y1="138" x2="100" y2="143" stroke="red" stroke-width="2" />
<line x1="100" y1="143" x2="119" y2="147" stroke="red" stroke-width="2" />
<line x1="119" y1="147" x2="157" y2="157" stroke="red" stroke-width="2" />
<line x1="100" y1="18" x2="80" y2="52" stroke="red" stroke-width="2" />
<line x1="80" y1="52" x2="69" y2="69" stroke="red" stroke-width="2" />
<line x1="69" y1="69" x2="61" y2="83" stroke="red" stroke-width="2" />
<line x1="200" y1="88" x2="181" y2="100" stroke="red" stroke-width="2" />
<line x1="181" y1="100" x2="147" y2="119" stroke="red" stroke-width="2" />
<line x1="147" y1="119" x2="130" y2="130" stroke="red" stroke-width="2" />
<line x1="130" y1="130" x2="116" y2="138" stroke="red" stroke-width="2" />
<line x1="61" y1="116" x2="57" y2="100" stroke="red" stroke-width="2" />
<line x1="57" y1="100" x2="52" y2="80" stroke="red" stroke-width="2" />
<line x1="52" y1="80" x2="42" y2="42" stroke="red" stroke-width="2" />
<line x1="138" y1="116" x2="143" y2="100" stroke="red" stroke-width="2" />
<line x1="143" y1="100" x2="147" y2="80" stroke="red" stroke-width="2" />
<line x1="147" y1="80" x2="157" y2="42" stroke="red" stroke-width="2" />
<line x1="18" y1="100" x2="52" y2="119" stroke="red" stroke-width="2" />
<line x1="52" y1="119" x2="69" y2="130" stroke="red" stroke-width="2" />
<line x1="69" y1="130" x2="83" y2="138" stroke="red" stroke-width="2" />
<line x1="100" y1="18" x2="119" y2="52" stroke="red" stroke-width="2" />
<line x1="119" y1="52" x2="130" y2="69" stroke="red" stroke-width="2" />
<line x1="130" y1="69" x2="138" y2="83" stroke="red" stroke-width="2" />
<line x1="116" y1="138" x2="100" y2="143" stroke="red" stroke-width="2" />
<line x1="100" y1="143" x2="80" y2="147" stroke="red" stroke-width="2" />
<line x1="80" y1="147" x2="42" y2="157" stroke="red" stroke-width="2" />
<line x1="116" y1="61" x2="100" y2="57" stroke="red" stroke-width="2" />
<line x1="100" y1="57" x2="80" y2="52" stroke="red" stroke-width="2" />
<line x1="80" y1="52" x2="42" y2="42" stroke="red" stroke-width="2" />
<line x1="88" y1="200" x2="99" y2="181" stroke="red" stroke-width="2" />
<line x1="99" y1="181" x2="119" y2="147" stroke="red" stroke-width="2" />
<line x1="119" y1="147" x2="130" y2="130" stroke="red" stroke-width="2" />
<line x1="130" y1="130" x2="138" y2="116" stroke="red" stroke-width="2" />
<line x1="18" y1="100" x2="52" y2="80" stroke="red" stroke-width="2" />
<line x1="52" y1="80" x2="69" y2="69" stroke="red" stroke-width="2" />
<line x1="69" y1="69" x2="83" y2="61" stroke="red" stroke-width="2" />
<line x1="338" y1="83" x2="343" y2="100" stroke="red" stroke-width="2" />
<line x1="343" y1="100" x2="347" y2="119" stroke="red" stroke-width="2" />
<line x1="347" y1="119" x2="357" y2="157" stroke="red" stroke-width="2" />
<line x1="261" y1="83" x2="257" y2="100" stroke="red" stroke-width="2" />
<line x1="257" y1="100" x2="252" y2="119" stroke="red" stroke-width="2" />
<line x1="252" y1="119" x2="242" y2="157" stroke="red" stroke-width="2" />
<line x1="400" y1="111" x2="381" y2="100" stroke="red" stroke-width="2" />
<line x1="381" y1="100" x2="347" y2="80" stroke="red" stroke-width="2" />
<line x1="347" y1="80" x2="330" y2="69" stroke="red" stroke-width="2" />
<line x1="330" y1="69" x2="316" y2="61" stroke="red" stroke-width="2" />
<line x1="311" y1="200" x2="300" y2="181" stroke="red" stroke-width="2" />
<line x1="300" y1="181" x2="280" y2="147" stroke="red" stroke-width="2" />
<line x1="280" y1="147" x2="269" y2="130" stroke="red" stroke-width="2" />
<line x1="269" y1="130" x2="261" y2="116" stroke="red" stroke-width="2" />
<line x1="283" y1="61" x2="300" y2="57" stroke="red" stroke-width="2" />
<line x1="300" y1="57" x2="319" y2="52" stroke="red" stroke-width="2" />
<line x1="319" y1="52" x2="357" y2="42" stroke="red" stroke-width="2" />
<line x1="283" y1="138" x2="300" y2="143" stroke="red" stroke-width="2" />
<line x1="300" y1="143" x2="319" y2="147" stroke="red" stroke-width="2" />
<line x1="319" y1="147" x2="357" y2="157" stroke="red" stroke-width="2" />
<line x1="300" y1="18" x2="280" y2="52" stroke="red" stroke-width="2" />
<line x1="280" y1="52" x2="269" y2="69" stroke="red" stroke-width="2" />
<line x1="269" y1="69" x2="261" y2="83" stroke="red" stroke-width="2" />
<line x1="400" y1="88" x2="381" y2="100" stroke="red" stroke-width="2" />
<line x1="381" y1="100" x2="347" y2="119" stroke="red" stroke-width="2" />
<line x1="347" y1="119" x2="330" y2="130" stroke="red" stroke-width="2" />
<line x1="330" y1="130" x2="316" y2="138" stroke="red" stroke-width="2" />
<line x1="261" y1="116" x2="257" y2="100" stroke="red" stroke-width="2" />
<line x1="257" y1="100" x2="252" y2="80" stroke="red" stroke-width="2" />
<line x1="252" y1="80" x2="242" y2="42" stroke="red" stroke-width="2" />
<line x1="338" y1="116" x2="343" y2="100" stroke="red" stroke-width="2" />
<line x1="343" y1="100" x2="347" y2="80" stroke="red" stroke-width="2" />
<line x1="347" y1="80" x2="357" y2="42" stroke="red" stroke-width="2" />
<line x1="200" y1="88" x2="218" y2="99" stroke="red" stroke-width="2" />
<line x1="218" y1="99" x2="252" y2="119" stroke="red" stroke-width="2" />
<line x1="252" y1="119" x2="269" y2="130" stroke="red" stroke-width="2" />
<line x1="269" y1="130" x2="283" y2="138" stroke="red" stroke-width="2" />
<line x1="300" y1="18" x2="319" y2="52" stroke="red" stroke-width="2" />
<line x1="319" y1="52" x2="330" y2="69" stroke="red" stroke-width="2" />
<line x1="330" y1="69" x2="338" y2="83" stroke="red" stroke-width="2" />
<line x1="316" y1="138" x2="300" y2="143" stroke="red" stroke-width="2" />
<line x1="300" y1="143" x2="280" y2="147" stroke="red" stroke-width="2" />
<line x1="280" y1="147" x2="242" y2="157" stroke="red" stroke-width="2" />
<line x1="316" y1="61" x2="300" y2="57" stroke="red" stroke-width="2" />
<line x1="300" y1="57" x2="280" y2="52" stroke="red" stroke-width="2" />
<line x1="280" y1="52" x2="242" y2="42" stroke="red" stroke-width="2" />
<line x1="288" y1="199" x2="300" y2="181" stroke="red" stroke-width="2" />
<line x1="300" y1="181" x2="319" y2="147" stroke="red" stroke-width="2" />
<line x1="319" y1="147" x2="330" y2="130" stroke="red" stroke-width="2" />
<line x1="330" y1="130" x2="338" y2="116" stroke="red" stroke-width="2" />
<line x1="200" y1="111" x2="218" y2="100" stroke="red" stroke-width="2" />
<line x1="218" y1="100" x2="252" y2="80" stroke="red" stroke-width="2" />
<line x1="252" y1="80" x2="269" y2="69" stroke="red" stroke-width="2" />
<line x1="269" y1="69" x2="283" y2="61" stroke="red" stroke-width="2" />
<line x1="538" y1="83" x2="543" y2="100" stroke="red" stroke-width="2" />
<line x1="543" y1="100" x2="547" y2="119" stroke="red" stroke-width="2" />
<line x1="547" y1="119" x2="557" y2="157" stroke="red" stroke-width="2" />
<line x1="461" y1="83" x2="457" y2="100" stroke="red" stroke-width="2" />
<line x1="457" y1="100" x2="452" y2="119" stroke="red" stroke-width="2" />
<line x1="452" y1="119" x2="442" y2="157" stroke="red" stroke-width="2" />
<line x1="581" y1="100" x2="547" y2="80" stroke="red" stroke-width="2" />
<line x1="547" y1="80" x2="530" y2="69" stroke="red" stroke-width="2" />
<line x1="530" y1="69" x2="516" y2="61" stroke="red" stroke-width="2" />
<line x1="511" y1="200" x2="500" y2="181" stroke="red" stroke-width="2" />
<line x1="500" y1="181" x2="480" y2="147" stroke="red" stroke-width="2" />
<line x1="480" y1="147" x2="469" y2="130" stroke="red" stroke-width="2" />
<line x1="469" y1="130" x2="461" y2="116" stroke="red" stroke-width="2" />
<line x1="483" y1="61" x2="500" y2="57" stroke="red" stroke-width="2" />
<line x1="500" y1="57" x2="519" y2="52" stroke="red" stroke-width="2" />
<line x1="519" y1="52" x2="557" y2="42" stroke="red" stroke-width="2" />
<line x1="483" y1="138" x2="500" y2="143" stroke="red" stroke-width="2" />
<line x1="500" y1="143" x2="519" y2="147" stroke="red" stroke-width="2" />
<line x1="519" y1="147" x2="557" y2="157" stroke="red" stroke-width="2" />
<line x1="500" y1="18" x2="480" y2="52" stroke="red" stroke-width="2" />
<line x1="480" y1="52" x2="469" y2="69" stroke="red" stroke-width="2" />
<line x1="469" y1="69" x2="461" y2="83" stroke="red" stroke-width="2" />
<line x1="581" y1="100" x2="547" y2="119" stroke="red" stroke-width="2" />
<line x1="547" y1="119" x2="530" y2="130" stroke="red" stroke-width="2" />
<line x1="530" y1="130" x2="516" y2="138" stroke="red" stroke-width="2" />
<line x1="461" y1="116" x2="457" y2="100" stroke="red" stroke-width="2" />
<line x1="457" y1="100" x2="452" y2="80" stroke="red" stroke-width="2" />
<line x1="452" y1="80" x2="442" y2="42" stroke="red" stroke-width="2" />
<line x1="538" y1="116" x2="543" y2="100" stroke="red" stroke-width="2" />
<line x1="543" y1="100" x2="547" y2="80" stroke="red" stroke-width="2" />
<line x1="547" y1="80" x2="557" y2="42" stroke="red" stroke-width="2" />
<line x1="400" y1="88" x2="418" y2="99" stroke="red" stroke-width="2" />
<line x1="418" y1="99" x2="452" y2="119" stroke="red" stroke-width="2" />
<line x1="452" y1="119" x2="469" y2="130" stroke="red" stroke-width="2" />
<line x1="469" y1="130" x2="483" y2="138" stroke="red" stroke-width="2" />
<line x1="500" y1="18" x2="519" y2="52" stroke="red" stroke-width="2" />
<line x1="519" y1="52" x2="530" y2="69" stroke="red" stroke-width="2" />
<line x1="530" y1="69" x2="538" y2="83" stroke="red" stroke-width="2" />
<line x1="516" y1="138" x2="500" y2="143" stroke="red" stroke-width="2" />
<line x1="500" y1="143" x2="480" y2="147" stroke="red" stroke-width="2" />
<line x1="480" y1="147" x2="442" y2="157" stroke="red" stroke-width="2" />
<line x1="516" y1="61" x2="500" y2="57" stroke="red" stroke-width="2" />
<line x1="500" y1="57" x2="480" y2="52" stroke="red" stroke-width="2" />
<line x1="480" y1="52" x2="442" y2="42" stroke="red" stroke-width="2" />
<line x1="488" y1="199" x2="500" y2="181" stroke="red" stroke-width="2" />
<line x1="500" y1="181" x2="519" y2="147" stroke="red" stroke-width="2" />
<line x1="519" y1="147" x2="530" y2="130" stroke="red" stroke-width="2" />
<line x1="530" y1="130" x2="538" y2="116" stroke="red" stroke-width="2" />
<line x1="400" y1="111" x2="418" y2="100" stroke="red" stroke-width="2" />
<line x1="418" y1="100" x2="452" y2="80" stroke="red" stroke-width="2" />
<line x1="452" y1="80" x2="469" y2="69" stroke="red" stroke-width="2" />
<line x1="469" y1="69" x2="483" y2="61" stroke="red" stroke-width="2" />
<line x1="138" y1="283" x2="143" y2="300" stroke="red" stroke-width="2" />
<line x1="143" y1="300" x2="147" y2="319" stroke="red" stroke-width="2" />
<line x1="147" y1="319" x2="157" y2="357" stroke="red" stroke-width="2" />
<line x1="61" y1="283" x2="57" y2="300" stroke="red" stroke-width="2" />
<line x1="57" y1="300" x2="52" y2="319" stroke="red" stroke-width="2" />
<line x1="52" y1="319" x2="42" y2="357" stroke="red" stroke-width="2" />
<line x1="200" y1="311" x2="181" y2="300" stroke="red" stroke-width="2" />
<line x1="181" y1="300" x2="147" y2="280" stroke="red" stroke-width="2" />
<line x1="147" y1="280" x2="130" y2="269" stroke="red" stroke-width="2" />
<line x1="130" y1="269" x2="116" y2="261" stroke="red" stroke-width="2" />
<line x1="111" y1="400" x2="99" y2="381" stroke="red" stroke-width="2" />
<line x1="99" y1="381" x2="80" y2="347" stroke="red" stroke-width="2" />
<line x1="80" y1="347" x2="69" y2="330" stroke="red" stroke-width="2" />
<line x1="69" y1="330" x2="61" y2="316" stroke="red" stroke-width="2" />
<line x1="83" y1="261" x2="100" y2="257" stroke="red" stroke-width="2" />
<line x1="100" y1="257" x2="119" y2="252" stroke="red" stroke-width="2" />
<line x1="119" y1="252" x2="157" y2="242" stroke="red" stroke-width="2" />
<line x1="83" y1="338" x2="100" y2="343" stroke="red" stroke-width="2" />
<line x1="100" y1="343" x2="119" y2="347" stroke="red" stroke-width="2" />
<line x1="119" y1="347" x2="157" y2="357" stroke="red" stroke-width="2" />
<line x1="111" y1="200" x2="100" y2="218" stroke="red" stroke-width="2" />
<line x1="100" y1="218" x2="80" y2="252" stroke="red" stroke-width="2" />
<line x1="80" y1="252" x2="69" y2="269" stroke="red" stroke-width="2" />
<line x1="69" y1="269" x2="61" y2="283" stroke="red" stroke-width="2" />
<line x1="200" y1="288" x2="181" y2="300" stroke="red" stroke-width="2" />
<line x1="181" y1="300" x2="147" y2="319" stroke="red" stroke-width="2" />
<line x1="147" y1="319" x2="130" y2="330" stroke="red" stroke-width="2" />
<line x1="130" y1="330" x2="116" y2="338" stroke="red" stroke-width="2" />
<line x1="61" y1="316" x2="57" y2="300" stroke="red" stroke-width="2" />
<line x1="57" y1="300" x2="52" y2="280" stroke="red" stroke-width="2" />
<line x1="52" y1="280" x2="42" y2="242" stroke="red" stroke-width="2" />
<line x1="138" y1="316" x2="143" y2="300" stroke="red" stroke-width="2" />
<line x1="143" y1="300" x2="147" y2="280" stroke="red" stroke-width="2" />
<line x1="147" y1="280" x2="157" y2="242" stroke="red" stroke-width="2" />
<line x1="18" y1="300" x2="52" y2="319" stroke="red" stroke-width="2" />
<line x1="52" y1="319" x2="69" y2="330" stroke="red" stroke-width="2" />
<line x1="69" y1="330" x2="83" y2="338" stroke="red" stroke-width="2" />
<line x1="88" y1="200" x2="100" y2="218" stroke="red" stroke-width="2" />
<line x1="100" y1="218" x2="119" y2="252" stroke="red" stroke-width="2" />
<line x1="119" y1="252" x2="130" y2="269" stroke="red" stroke-width="2" />
<line x1="130" y1="269" x2="138" y2="283" stroke="red" stroke-width="2" />
<line x1="116" y1="338" x2="100" y2="343" stroke="red" stroke-width="2" />
<line x1="100" y1="343" x2="80" y2="347" stroke="red" stroke-width="2" />
<line x1="80" y1="347" x2="42" y2="357" stroke="red" stroke-width="2" />
<line x1="116" y1="261" x2="100" y2="257" stroke="red" stroke-width="2" />
<line x1="100" y1="257" x2="80" y2="252" stroke="red" stroke-width="2" />
<line x1="80" y1="252" x2="42" y2="242" stroke="red" stroke-width="2" />
<line x1="88" y1="400" x2="100" y2="381" stroke="red" stroke-width="2" />
<line x1="100" y1="381" x2="119" y2="347" stroke="red" stroke-width="2" />
<line x1="119" y1="347" x2="130" y2="330" stroke="red" stroke-width="2" />
<line x1="130" y1="330" x2="138" y2="316" stroke="red" stroke-width="2" />
<line x1="18" y1="300" x2="52" y2="280" stroke="red" stroke-width="2" />
<line x1="52" y1="280" x2="69" y2="269" stroke="red" stroke-width="2" />
<line x1="69" y1="269" x2="83" y2="261" stroke="red" stroke-width="2" />
<line x1="338" y1="283" x2="343" y2="300" stroke="red" stroke-width="2" />
<line x1="343" y1="300" x2="347" y2="319" stroke="red" stroke-width="2" />
<line x1="347" y1="319" x2="357" y2="357" stroke="red" stroke-width="2" />
<line x1="261" y1="283" x2="257" y2="300" stroke="red" stroke-width="2" />
<line x1="257" y1="300" x2="252" y2="319" stroke="red" stroke-width="2" />
<line x1="252" y1="319" x2="242" y2="357" stroke="red" stroke-width="2" />
<line x1="400" y1="311" x2="381" y2="300" stroke="red" stroke-width="2" />
<line x1="381" y1="300" x2="347" y2="280" stroke="red" stroke-width="2" />
<line x1="347" y1="280" x2="330" y2="269" stroke="red" stroke-width="2" />
<line x1="330" y1="269" x2="316" y2="261" stroke="red" stroke-width="2" />
<line x1="311" y1="400" x2="300" y2="381" stroke="red" stroke-width="2" />
<line x1="300" y1="381" x2="280" y2="347" stroke="red" stroke-width="2" />
<line x1="280" y1="347" x2="269" y2="330" stroke="red" stroke-width="2" />
<line x1="269" y1="330" x2="261" y2="316" stroke="red" stroke-width="2" />
<line x1="283" y1="261" x2="300" y2="257" stroke="red" stroke-width="2" />
<line x1="300" y1="257" x2="319" y2="252" stroke="red" stroke-width="2" />
<line x1="319" y1="252" x2="357" y2="242" stroke="red" stroke-width="2" />
<line x1="283" y1="338" x2="300" y2="343" stroke="red" stroke-width="2" />
<line x1="300" y1="343" x2="319" y2="347" stroke="red" stroke-width="2" />
<line x1="319" y1="347" x2="357" y2="357" stroke="red" stroke-width="2" />
<line x1="311" y1="200" x2="300" y2="218" stroke="red" stroke-width="2" />
<line x1="300" y1="218" x2="280" y2="252" stroke="red" stroke-width="2" />
<line x1="280" y1="252" x2="269" y2="269" stroke="red" stroke-width="2" />
<line x1="269" y1="269" x2="261" y2="283" stroke="red" stroke-width="2" />
<line x1="400" y1="288" x2="381" y2="300" stroke="red" stroke-width="2" />
<line x1="381" y1="300" x2="347" y2="319" stroke="red" stroke-width="2" />
<line x1="347" y1="319" x2="330" y2="330" stroke="red" stroke-width="2" />
<line x1="330" y1="330" x2="316" y2="338" stroke="red" stroke-width="2" />
<line x1="261" y1="316" x2="257" y2="300" stroke="red" stroke-width="2" />
<line x1="257" y1="300" x2="252" y2="280" stroke="red" stroke-width="2" />
<line x1="252" y1="280" x2="242" y2="242" stroke="red" stroke-width="2" />
<line x1="338" y1="316" x2="343" y2="300" stroke="red" stroke-width="2" />
<line x1="343" y1="300" x2="347" y2="280" stroke="red" stroke-width="2" />
<line x1="347" y1="280" x2="357" y2="242" stroke="red" stroke-width="2" />
<line x1="200" y1="288" x2="218" y2="300" stroke="red" stroke-width="2" />
<line x1="218" y1="300" x2="252" y2="319" stroke="red" stroke-width="2" />
<line x1="252" y1="319" x2="269" y2="330" stroke="red" stroke-width="2" />
<line x1="269" y1="330" x2="283" y2="338" stroke="red" stroke-width="2" />
<line x1="288" y1="199" x2="300" y2="218" stroke="red" stroke-width="2" />
<line x1="300" y1="218" x2="319" y2="252" stroke="red" stroke-width="2" />
<line x1="319" y1="252" x2="330" y2="269" stroke="red" stroke-width="2" />
<line x1="330" y1="269" x2="338" y2="283" stroke="red" stroke-width="2" />
<line x1="316" y1="338" x2="300" y2="343" stroke="red" stroke-width="2" />
<line x1="300" y1="343" x2="280" y2="347" stroke="red" stroke-width="2" />
<line x1="280" y1="347" x2="242" y2="357" stroke="red" stroke-width="2" />
<line x1="316" y1="261" x2="300" y2="257" stroke="red" stroke-width="2" />
<line x1="300" y1="257" x2="280" y2="252" stroke="red" stroke-width="2" />
<line x1="280" y1="252" x2="242" y2="242" stroke="red" stroke-width="2" />
<line x1="288" y1="399" x2="300" y2="381" stroke="red" stroke-width="2" />
<line x1="300" y1="381" x2="319" y2="347" stroke="red" stroke-width="2" />
<line x1="319" y1="347" x2="330" y2="330" stroke="red" stroke-width="2" />
<line x1="330" y1="330" x2="338" y2="316" stroke="red" stroke-width="2" />
<line x1="200" y1="311" x2="218" y2="300" stroke="red" stroke-width="2" />
<line x1="218" y1="300" x2="252" y2="280" stroke="red" stroke-width="2" />
<line x1="252" y1="280" x2="269" y2="269" stroke="red" stroke-width="2" />
<line x1="269" y1="269" x2="283" y2="261" stroke="red" stroke-width="2" />
<line x1="538" y1="283" x2="543" y2="300" stroke="red" stroke-width="2" />
<line x1="543" y1="300" x2="547" y2="319" stroke="red" stroke-width="2" />
<line x1="547" y1="319" x2="557" y2="357" stroke="red" stroke-width="2" />
<line x1="461" y1="283" x2="457" y2="300" stroke="red" stroke-width="2" />
<line x1="457" y1="300" x2="452" y2="319" stroke="red" stroke-width="2" />
<line x1="452" y1="319" x2="442" y2="357" stroke="red" stroke-width="2" />
<line x1="581" y1="300" x2="547" y2="280" stroke="red" stroke-width="2" />
<line x1="547" y1="280" x2="530" y2="269" stroke="red" stroke-width="2" />
<line x1="530" y1="269" x2="516" y2="261" stroke="red" stroke-width="2" />
<line x1="511" y1="400" x2="500" y2="381" stroke="red" stroke-width="2" />
<line x1="500" y1="381" x2="480" y2="347" stroke="red" stroke-width="2" />
<line x1="480" y1="347" x2="469" y2="330" stroke="red" stroke-width="2" />
<line x1="469" y1="330" x2="461" y2="316" stroke="red" stroke-width="2" />
<line x1="483" y1="261" x2="500" y2="257" stroke="red" stroke-width="2" />
<line x1="500" y1="257" x2="519" y2="252" stroke="red" stroke-width="2" />
<line x1="519" y1="252" x2="557" y2="242" stroke="red" stroke-width="2" />
<line x1="483" y1="338" x2="500" y2="343" stroke="red" stroke-width="2" />
<line x1="500" y1="343" x2="519" y2="347" stroke="red" stroke-width="2" />
<line x1="519" y1="347" x2="557" y2="357" stroke="red" stroke-width="2" />
<line x1="511" y1="200" x2="500" y2="218" stroke="red" stroke-width="2" />
<line x1="500" y1="218" x2="480" y2="252" stroke="red" stroke-width="2" />
<line x1="480" y1="252" x2="469" y2="269" stroke="red" stroke-width="2" />
<line x1="469" y1="269" x2="461" y2="283" stroke="red" stroke-width="2" />
<line x1="581" y1="300" x2="547" y2="319" stroke="red" stroke-width="2" />
<line x1="547" y1="319" x2="530" y2="330" stroke="red" stroke-width="2" />
<line x1="530" y1="330" x2="516" y2="338" stroke="red" stroke-width="2" />
<line x1="461" y1="316" x2="457" y2="300" stroke="red" stroke-width="2" />
<line x1="457" y1="300" x2="452" y2="280" stroke="red" stroke-width="2" />
<line x1="452" y1="280" x2="442" y2="242" stroke="red" stroke-width="2" />
<line x1="538" y1="316" x2="543" y2="300" stroke="red" stroke-width="2" />
<line x1="543" y1="300" x2="547" y2="280" stroke="red" stroke-width="2" />
<line x1="547" y1="280" x2="557" y2="242" stroke="red" stroke-width="2" />
<line x1="400" y1="288" x2="418" y2="300" stroke="red" stroke-width="2" />
<line x1="418" y1="300" x2="452" y2="319" stroke="red" stroke-width="2" />
<line x1="452" y1="319" x2="469" y2="330" stroke="red" stroke-width="2" />
<line x1="469" y1="330" x2="483" y2="338" stroke="red" stroke-width="2" />
<line x1="488" y1="199" x2="500" y2="218" stroke="red" stroke-width="2" />
<line x1="500" y1="218" x2="519" y2="252" stroke="red" stroke-width="2" />
<line x1="519" y1="252" x2="530" y2="269" stroke="red" stroke-width="2" />
<line x1="530" y1="269" x2="538" y2="283" stroke="red" stroke-width="2" />
<line x1="516" y1="338" x2="500" y2="343" stroke="red" stroke-width="2" />
<line x1="500" y1="343" x2="480" y2="347" stroke="red" stroke-width="2" />
<line x1="480" y1="347" x2="442" y2="357" stroke="red" stroke-width="2" />
<line x1="516" y1="261" x2="500" y2="257" stroke="red" stroke-width="2" />
<line x1="500" y1="257" x2="480" y2="252" stroke="red" stroke-width="2" />
<line x1="480" y1="252" x2="442" y2="242" stroke="red" stroke-width="2" />
<line x1="488" y1="399" x2="500" y2="381" stroke="red" stroke-width="2" />
<line x1="500" y1="381" x2="519" y2="347" stroke="red" stroke-width="2" />
<line x1="519" y1="347" x2="530" y2="330" stroke="red" stroke-width="2" />
<line x1="530" y1="330" x2="538" y2="316" stroke="red" stroke-width="2" />
<line x1="400" y1="311" x2="418" y2="300" stroke="red" stroke-width="2" />
<line x1="418" y1="300" x2="452" y2="280" stroke="red" stroke-width="2" />
<line x1="452" y1="280" x2="469" y2="269" stroke="red" stroke-width="2" />
<line x1="469" y1="269" x2="483" y2="261" stroke="red" stroke-width="2" />
<line x1="138" y1="483" x2="143" y2="500" stroke="red" stroke-width="2" />
<line x1="143" y1="500" x2="147" y2="519" stroke="red" stroke-width="2" />
<line x1="147" y1="519" x2="157" y2="557" stroke="red" stroke-width="2" />
<line x1="61" y1="483" x2="57" y2="500" stroke="red" stroke-width="2" />
<line x1="57" y1="500" x2="52" y2="519" stroke="red" stroke-width="2" />
<line x1="52" y1="519" x2="42" y2="557" stroke="red" stroke-width="2" />
<line x1="200" y1="511" x2="181" y2="500" stroke="red" stroke-width="2" />
<line x1="181" y1="500" x2="147" y2="480" stroke="red" stroke-width="2" />
<line x1="147" y1="480" x2="130" y2="469" stroke="red" stroke-width="2" />
<line x1="130" y1="469" x2="116" y2="461" stroke="red" stroke-width="2" />
<line x1="99" y1="581" x2="80" y2="547" stroke="red" stroke-width="2" />
<line x1="80" y1="547" x2="69" y2="530" stroke="red" stroke-width="2" />
<line x1="69" y1="530" x2="61" y2="516" stroke="red" stroke-width="2" />
<line x1="83" y1="461" x2="100" y2="457" stroke="red" stroke-width="2" />
<line x1="100" y1="457" x2="119" y2="452" stroke="red" stroke-width="2" />
<line x1="119" y1="452" x2="157" y2="442" stroke="red" stroke-width="2" />
<line x1="83" y1="538" x2="100" y2="543" stroke="red" stroke-width="2" />
<line x1="100" y1="543" x2="119" y2="547" stroke="red" stroke-width="2" />
<line x1="119" y1="547" x2="157" y2="557" stroke="red" stroke-width="2" />
<line x1="111" y1="400" x2="100" y2="418" stroke="red" stroke-width="2" />
<line x1="100" y1="418" x2="80" y2="452" stroke="red" stroke-width="2" />
<line x1="80" y1="452" x2="69" y2="469" stroke="red" stroke-width="2" />
<line x1="69" y1="469" x2="61" y2="483" stroke="red" stroke-width="2" />
<line x1="200" y1="488" x2="181" y2="500" stroke="red" stroke-width="2" />
<line x1="181" y1="500" x2="147" y2="519" stroke="red" stroke-width="2" />
<line x1="147" y1="519" x2="130" y2="530" stroke="red" stroke-width="2" />
<line x1="130" y1="530" x2="116" y2="538" stroke="red" stroke-width="2" />
<line x1="61" y1="516" x2="57" y2="500" stroke="red" stroke-width="2" />
<line x1="57" y1="500" x2="52" y2="480" stroke="red" stroke-width="2" />
<line x1="52" y1="480" x2="42" y2="442" stroke="red" stroke-width="2" />
<line x1="138" y1="516" x2="143" y2="500" stroke="red" stroke-width="2" />
<line x1="143" y1="500" x2="147" y2="480" stroke="red" stroke-width="2" />
<line x1="147" y1="480" x2="157" y2="442" stroke="red" stroke-width="2" />
<line x1="18" y1="500" x2="52" y2="519" stroke="red" stroke-width="2" />
<line x1="52" y1="519" x2="69" y2="530" stroke="red" stroke-width="2" />
<line x1="69" y1="530" x2="83" y2="538" stroke="red" stroke-width="2" />
<line x1="88" y1="400" x2="100" y2="418" stroke="red" stroke-width="2" />
<line x1="100" y1="418" x2="119" y2="452" stroke="red" stroke-width="2" />
<line x1="119" y1="452" x2="130" y2="469" stroke="red" stroke-width="2" />
<line x1="130" y1="469" x2="138" y2="483" stroke="red" stroke-width="2" />
<line x1="116" y1="538" x2="100" y2="543" stroke="red" stroke-width="2" />
<line x1="100" y1="543" x2="80" y2="547" stroke="red" stroke-width="2" />
<line x1="80" y1="547" x2="42" y2="557" stroke="red" stroke-width="2" />
<line x1="116" y1="461" x2="100" y2="457" stroke="red" stroke-width="2" />
<line x1="100" y1="457" x2="80" y2="452" stroke="red" stroke-width="2" />
<line x1="80" y1="452" x2="42" y2="442" stroke="red" stroke-width="2" />
<line x1="100" y1="581" x2="119" y2="547" stroke="red" stroke-width="2" />
<line x1="119" y1="547" x2="130" y2="530" stroke="red" stroke-width="2" />
<line x1="130" y1="530" x2="138" y2="516" stroke="red" stroke-width="2" />
<line x1="18" y1="500" x2="52" y2="480" stroke="red" stroke-width="2" />
<line x1="52" y1="480" x2="69" y2="469" stroke="red" stroke-width="2" />
<line x1="69" y1="469" x2="83" y2="461" stroke="red" stroke-width="2" />
<line x1="338" y1="483" x2="343" y2="500" stroke="red" stroke-width="2" />
<line x1="343" y1="500" x2="347" y2="519" stroke="red" stroke-width="2" />
<line x1="347" y1="519" x2="357" y2="557" stroke="red" stroke-width="2" />
<line x1="261" y1="483" x2="257" y2="500" stroke="red" stroke-width="2" />
<line x1="257" y1="500" x2="252" y2="519" stroke="red" stroke-width="2" />
<line x1="252" y1="519" x2="242" y2="557" stroke="red" stroke-width="2" />
<line x1="400" y1="511" x2="381" y2="500" stroke="red" stroke-width="2" />
<line x1="381" y1="500" x2="347" y2="480" stroke="red" stroke-width="2" />
<line x1="347" y1="480" x2="330" y2="469" stroke="red" stroke-width="2" />
<line x1="330" y1="469" x2="316" y2="461" stroke="red" stroke-width="2" />
<line x1="300" y1="581" x2="280" y2="547" stroke="red" stroke-width="2" />
<line x1="280" y1="547" x2="269" y2="530" stroke="red" stroke-width="2" />
<line x1="269" y1="530" x2="261" y2="516" stroke="red" stroke-width="2" />
<line x1="283" y1="461" x2="300" y2="457" stroke="red" stroke-width="2" />
<line x1="300" y1="457" x2="319" y2="452" stroke="red" stroke-width="2" />
<line x1="319" y1="452" x2="357" y2="442" stroke="red" stroke-width="2" />
<line x1="283" y1="538" x2="300" y2="543" stroke="red" stroke-width="2" />
<line x1="300" y1="543" x2="319" y2="547" stroke="red" stroke-width="2" />
<line x1="319" y1="547" x2="357" y2="557" stroke="red" stroke-width="2" />
<line x1="311" y1="400" x2="300" y2="418" stroke="red" stroke-width="2" />
<line x1="300" y1="418" x2="280" y2="452" stroke="red" stroke-width="2" />
<line x1="280" y1="452" x2="269" y2="469" stroke="red" stroke-width="2" />
<line x1="269" y1="469" x2="261" y2="483" stroke="red" stroke-width="2" />
<line x1="400" y1="488" x2="381" y2="500" stroke="red" stroke-width="2" />
<line x1="381" y1="500" x2="347" y2="519" stroke="red" stroke-width="2" />
<line x1="347" y1="519" x2="330" y2="530" stroke="red" stroke-width="2" />
<line x1="330" y1="530" x2="316" y2="538" stroke="red" stroke-width="2" />
<line x1="261" y1="516" x2="257" y2="500" stroke="red" stroke-width="2" />
<line x1="257" y1="500" x2="252" y2="480" stroke="red" stroke-width="2" />
<line x1="252" y1="480" x2="242" y2="442" stroke="red" stroke-width="2" />
<line x1="338" y1="516" x2="343" y2="500" stroke="red" stroke-width="2" />
<line x1="343" y1="500" x2="347" y2="480" stroke="red" stroke-width="2" />
<line x1="347" y1="480" x2="357" y2="442" stroke="red" stroke-width="2" />
<line x1="200" y1="488" x2="218" y2="500" stroke="red" stroke-width="2" />
<line x1="218" y1="500" x2="252" y2="519" stroke="red" stroke-width="2" />
<line x1="252" y1="519" x2="269" y2="530" stroke="red" stroke-width="2" />
<line x1="269" y1="530" x2="283" y2="538" stroke="red" stroke-width="2" />
<line x1="288" y1="399" x2="300" y2="418" stroke="red" stroke-width="2" />
<line x1="300" y1="418" x2="319" y2="452" stroke="red" stroke-width="2" />
<line x1="319" y1="452" x2="330" y2="469" stroke="red" stroke-width="2" />
<line x1="330" y1="469" x2="338" y2="483" stroke="red" stroke-width="2" />
<line x1="316" y1="538" x2="300" y2="543" stroke="red" stroke-width="2" />
<line x1="300" y1="543" x2="280" y2="547" stroke="red" stroke-width="2" />
<line x1="280" y1="547" x2="242" y2="557" stroke="red" stroke-width="2" />
<line x1="316" y1="461" x2="300" y2="457" stroke="red" stroke-width="2" />
<line x1="300" y1="457" x2="280" y2="452" stroke="red" stroke-width="2" />
<line x1="280" y1="452" x2="242" y2="442" stroke="red" stroke-width="2" />
<line x1="300" y1="581" x2="319" y2="547" stroke="red" stroke-width="2" />
<line x1="319" y1="547" x2="330" y2="530" stroke="red" stroke-width="2" />
<line x1="330" y1="530" x2="338" y2="516" stroke="red" stroke-width="2" />
<line x1="200" y1="511" x2="218" y2="500" stroke="red" stroke-width="2" />
<line x1="218" y1="500" x2="252" y2="480" stroke="red" stroke-width="2" />
<line x1="252" y1="480" x2="269" y2="469" stroke="red" stroke-width="2" />
<line x1="269" y1="469" x2="283" y2="461" stroke="red" stroke-width="2" />
<line x1="538" y1="483" x2="543" y2="500" stroke="red" stroke-width="2" />
<line x1="543" y1="500" x2="547" y2="519" stroke="red" stroke-width="2" />
<line x1="547" y1="519" x2="557" y2="557" stroke="red" stroke-width="2" />
<line x1="461" y1="483" x2="457" y2="500" stroke="red" stroke-width="2" />
<line x1="457" y1="500" x2="452" y2="519" stroke="red" stroke-width="2" />
<line x1="452" y1="519" x2="442" y2="557" stroke="red" stroke-width="2" />
<line x1="581" y1="500" x2="547" y2="480" stroke="red" stroke-width="2" />
<line x1="547" y1="480" x2="530" y2="469" stroke="red" stroke-width="2" />
<line x1="530" y1="469" x2="516" y2="461" stroke="red" stroke-width="2" />
<line x1="500" y1="581" x2="480" y2="547" stroke="red" stroke-width="2" />
<line x1="480" y1="547" x2="469" y2="530" stroke="red" stroke-width="2" />
<line x1="469" y1="530" x2="461" y2="516" stroke="red" stroke-width="2" />
<line x1="483" y1="461" x2="500" y2="457" stroke="red" stroke-width="2" />
<line x1="500" y1="457" x2="519" y2="452" stroke="red" stroke-width="2" />
<line x1="519" y1="452" x2="557" y2="442" stroke="red" stroke-width="2" />
<line x1="483" y1="538" x2="500" y2="543" stroke="red" stroke-width="2" />
<line x1="500" y1="543" x2="519" y2="547" stroke="red" stroke-width="2" />
<line x1="519" y1="547" x2="557" y2="557" stroke="red" stroke-width="2" />
<line x1="511" y1="400" x2="500" y2="418" stroke="red" stroke-width="2" />
<line x1="500" y1="418" x2="480" y2="452" stroke="red" stroke-width="2" />
<line x1="480" y1="452" x2="469" y2="469" stroke="red" stroke-width="2" />
<line x1="469" y1="469" x2="461" y2="483" stroke="red" stroke-width="2" />
<line x1="581" y1="500" x2="547" y2="519" stroke="red" stroke-width="2" />
<line x1="547" y1="519" x2="530" y2="530" stroke="red" stroke-width="2" />
<line x1="530" y1="530" x2="516" y2="538" stroke="red" stroke-width="2" />
<line x1="461" y1="516" x2="457" y2="500" stroke="red" stroke-width="2" />
<line x1="457" y1="500" x2="452" y2="480" stroke="red" stroke-width="2" />
<line x1="452" y1="480" x2="442" y2="442" stroke="red" stroke-width="2" />
<line x1="538" y1="516" x2="543" y2="500" stroke="red" stroke-width="2" />
<line x1="543" y1="500" x2="547" y2="480" stroke="red" stroke-width="2" />
<line x1="547" y1="480" x2="557" y2="442" stroke="red" stroke-width="2" />
<line x1="400" y1="488" x2="418" y2="500" stroke="red" stroke-width="2" />
<line x1="418" y1="500" x2="452" y2="519" stroke="red" stroke-width="2" />
<line x1="452" y1="519" x2="469" y2="530" stroke="red" stroke-width="2" />
<line x1="469" y1="530" x2="483" y2="538" stroke="red" stroke-width="2" />
<line x1="488" y1="399" x2="500" y2="418" stroke="red" stroke-width="2" />
<line x1="500" y1="418" x2="519" y2="452" stroke="red" stroke-width="2" />
<line x1="519" y1="452" x2="530" y2="469" stroke="red" stroke-width="2" />
<line x1="530" y1="469" x2="538" y2="483" stroke="red" stroke-width="2" />
<line x1="516" y1="538" x2="500" y2="543" stroke="red" stroke-width="2" />
<line x1="500" y1="543" x2="480" y2="547" stroke="red" stroke-width="2" />
<line x1="480" y1="547" x2="442" y2="557" stroke="red" stroke-width="2" />
<line x1="516" y1="461" x2="500" y2="457" stroke="red" stroke-width="2" />
<line x1="500" y1="457" x2="480" y2="452" stroke="red" stroke-width="2" />
<line x1="480" y1="452" x2="442" y2="442" stroke="red" stroke-width="2" />
<line x1="500" y1="581" x2="519" y2="547" stroke="red" stroke-width="2" />
<line x1="519" y1="547" x2="530" y2="530" stroke="red" stroke-width="2" />
<line x1="530" y1="530" x2="538" y2="516" stroke="red" stroke-width="2" />
<line x1="400" y1="511" x2="418" y2="500" stroke="red" stroke-width="2" />
<line x1="418" y1="500" x2="452" y2="480" stroke="red" stroke-width="2" />
<line x1="452" y1="480" x2="469" y2="469" stroke="red" stroke-width="2" />
<line x1="469" y1="469" x2="483" y2="461" stroke="red" stroke-width="2" />
</svg>
