<svg height="600" width="600">
<line x1="176" y1="131" x2="178" y2="100" stroke="red" stroke-width="2" />
<line x1="118" y1="107" x2="124" y2="100" stroke="red" stroke-width="2" />
<line x1="124" y1="100" x2="134" y2="85" stroke="red" stroke-width="2" />
<line x1="23" y1="131" x2="21" y2="100" stroke="red" stroke-width="2" />
<line x1="81" y1="107" x2="75" y2="100" stroke="red" stroke-width="2" />
<line x1="75" y1="100" x2="65" y2="85" stroke="red" stroke-width="2" />
<line x1="200" y1="93" x2="176" y2="68" stroke="red" stroke-width="2" />
<line x1="176" y1="68" x2="155" y2="44" stroke="red" stroke-width="2" />
<line x1="118" y1="92" x2="117" y2="82" stroke="red" stroke-width="2" />
<line x1="117" y1="82" x2="114" y2="65" stroke="red" stroke-width="2" />
<line x1="93" y1="200" x2="68" y2="176" stroke="red" stroke-width="2" />
<line x1="68" y1="176" x2="44" y2="155" stroke="red" stroke-width="2" />
<line x1="92" y1="118" x2="82" y2="117" stroke="red" stroke-width="2" />
<line x1="82" y1="117" x2="65" y2="114" stroke="red" stroke-width="2" />
<line x1="131" y1="23" x2="100" y2="21" stroke="red" stroke-width="2" />
<line x1="107" y1="81" x2="100" y2="75" stroke="red" stroke-width="2" />
<line x1="100" y1="75" x2="85" y2="65" stroke="red" stroke-width="2" />
<line x1="131" y1="176" x2="100" y2="178" stroke="red" stroke-width="2" />
<line x1="107" y1="118" x2="100" y2="124" stroke="red" stroke-width="2" />
<line x1="100" y1="124" x2="85" y2="134" stroke="red" stroke-width="2" />
<line x1="68" y1="23" x2="44" y2="44" stroke="red" stroke-width="2" />
<line x1="92" y1="81" x2="82" y2="82" stroke="red" stroke-width="2" />
<line x1="82" y1="82" x2="65" y2="85" stroke="red" stroke-width="2" />
<line x1="200" y1="106" x2="176" y2="131" stroke="red" stroke-width="2" />
<line x1="176" y1="131" x2="155" y2="155" stroke="red" stroke-width="2" />
<line x1="118" y1="107" x2="117" y2="117" stroke="red" stroke-width="2" />
<line x1="117" y1="117" x2="114" y2="134" stroke="red" stroke-width="2" />
<line x1="23" y1="68" x2="21" y2="100" stroke="red" stroke-width="2" />
<line x1="81" y1="92" x2="75" y2="100" stroke="red" stroke-width="2" />
<line x1="75" y1="100" x2="65" y2="114" stroke="red" stroke-width="2" />
<line x1="176" y1="68" x2="178" y2="100" stroke="red" stroke-width="2" />
<line x1="118" y1="92" x2="124" y2="100" stroke="red" stroke-width="2" />
<line x1="124" y1="100" x2="134" y2="114" stroke="red" stroke-width="2" />
<line x1="23" y1="131" x2="44" y2="155" stroke="red" stroke-width="2" />
<line x1="81" y1="107" x2="82" y2="117" stroke="red" stroke-width="2" />
<line x1="82" y1="117" x2="85" y2="134" stroke="red" stroke-width="2" />
<line x1="131" y1="23" x2="155" y2="44" stroke="red" stroke-width="2" />
<line x1="107" y1="81" x2="117" y2="82" stroke="red" stroke-width="2" />
<line x1="117" y1="82" x2="134" y2="85" stroke="red" stroke-width="2" />
<line x1="68" y1="176" x2="100" y2="178" stroke="red" stroke-width="2" />
<line x1="92" y1="118" x2="100" y2="124" stroke="red" stroke-width="2" />
<line x1="100" y1="124" x2="114" y2="134" stroke="red" stroke-width="2" />
<line x1="68" y1="23" x2="99" y2="21" stroke="red" stroke-width="2" />
<line x1="92" y1="81" x2="100" y2="75" stroke="red" stroke-width="2" />
<line x1="100" y1="75" x2="114" y2="65" stroke="red" stroke-width="2" />
<line x1="106" y1="199" x2="131" y2="176" stroke="red" stroke-width="2" />
<line x1="131" y1="176" x2="155" y2="155" stroke="red" stroke-width="2" />
<line x1="107" y1="118" x2="117" y2="117" stroke="red" stroke-width="2" />
<line x1="117" y1="117" x2="134" y2="114" stroke="red" stroke-width="2" />
<line x1="23" y1="68" x2="44" y2="44" stroke="red" stroke-width="2" />
<line x1="81" y1="92" x2="82" y2="82" stroke="red" stroke-width="2" />
<line x1="82" y1="82" x2="85" y2="65" stroke="red" stroke-width="2" />
<line x1="376" y1="131" x2="378" y2="100" stroke="red" stroke-width="2" />
<line x1="318" y1="107" x2="324" y2="100" stroke="red" stroke-width="2" />
<line x1="324" y1="100" x2="334" y2="85" stroke="red" stroke-width="2" />
<line x1="223" y1="131" x2="221" y2="100" stroke="red" stroke-width="2" />
<line x1="281" y1="107" x2="275" y2="100" stroke="red" stroke-width="2" />
<line x1="275" y1="100" x2="265" y2="85" stroke="red" stroke-width="2" />
<line x1="400" y1="93" x2="376" y2="68" stroke="red" stroke-width="2" />
<line x1="376" y1="68" x2="355" y2="44" stroke="red" stroke-width="2" />
<line x1="318" y1="92" x2="317" y2="82" stroke="red" stroke-width="2" />
<line x1="317" y1="82" x2="314" y2="65" stroke="red" stroke-width="2" />
<line x1="293" y1="200" x2="268" y2="176" stroke="red" stroke-width="2" />
<line x1="268" y1="176" x2="244" y2="155" stroke="red" stroke-width="2" />
<line x1="292" y1="118" x2="282" y2="117" stroke="red" stroke-width="2" />
<line x1="282" y1="117" x2="265" y2="114" stroke="red" stroke-width="2" />
<line x1="331" y1="23" x2="300" y2="21" stroke="red" stroke-width="2" />
<line x1="307" y1="81" x2="300" y2="75" stroke="red" stroke-width="2" />
<line x1="300" y1="75" x2="285" y2="65" stroke="red" stroke-width="2" />
<line x1="331" y1="176" x2="300" y2="178" stroke="red" stroke-width="2" />
<line x1="307" y1="118" x2="300" y2="124" stroke="red" stroke-width="2" />
<line x1="300" y1="124" x2="285" y2="134" stroke="red" stroke-width="2" />
<line x1="268" y1="23" x2="244" y2="44" stroke="red" stroke-width="2" />
<line x1="292" y1="81" x2="282" y2="82" stroke="red" stroke-width="2" />
<line x1="282" y1="82" x2="265" y2="85" stroke="red" stroke-width="2" />
<line x1="400" y1="106" x2="376" y2="131" stroke="red" stroke-width="2" />
<line x1="376" y1="131" x2="355" y2="155" stroke="red" stroke-width="2" />
<line x1="318" y1="107" x2="317" y2="117" stroke="red" stroke-width="2" />
<line x1="317" y1="117" x2="314" y2="134" stroke="red" stroke-width="2" />
<line x1="223" y1="68" x2="221" y2="99" stroke="red" stroke-width="2" />
<line x1="281" y1="92" x2="275" y2="100" stroke="red" stroke-width="2" />
<line x1="275" y1="100" x2="265" y2="114" stroke="red" stroke-width="2" />
<line x1="376" y1="68" x2="378" y2="100" stroke="red" stroke-width="2" />
<line x1="318" y1="92" x2="324" y2="100" stroke="red" stroke-width="2" />
<line x1="324" y1="100" x2="334" y2="114" stroke="red" stroke-width="2" />
<line x1="200" y1="106" x2="223" y2="131" stroke="red" stroke-width="2" />
<line x1="223" y1="131" x2="244" y2="155" stroke="red" stroke-width="2" />
<line x1="281" y1="107" x2="282" y2="117" stroke="red" stroke-width="2" />
<line x1="282" y1="117" x2="285" y2="134" stroke="red" stroke-width="2" />
<line x1="331" y1="23" x2="355" y2="44" stroke="red" stroke-width="2" />
<line x1="307" y1="81" x2="317" y2="82" stroke="red" stroke-width="2" />
<line x1="317" y1="82" x2="334" y2="85" stroke="red" stroke-width="2" />
<line x1="268" y1="176" x2="300" y2="178" stroke="red" stroke-width="2" />
<line x1="292" y1="118" x2="300" y2="124" stroke="red" stroke-width="2" />
<line x1="300" y1="124" x2="314" y2="134" stroke="red" stroke-width="2" />
<line x1="268" y1="23" x2="300" y2="21" stroke="red" stroke-width="2" />
<line x1="292" y1="81" x2="300" y2="75" stroke="red" stroke-width="2" />
<line x1="300" y1="75" x2="314" y2="65" stroke="red" stroke-width="2" />
<line x1="306" y1="200" x2="331" y2="176" stroke="red" stroke-width="2" />
<line x1="331" y1="176" x2="355" y2="155" stroke="red" stroke-width="2" />
<line x1="307" y1="118" x2="317" y2="117" stroke="red" stroke-width="2" />
<line x1="317" y1="117" x2="334" y2="114" stroke="red" stroke-width="2" />
<line x1="200" y1="93" x2="223" y2="68" stroke="red" stroke-width="2" />
<line x1="223" y1="68" x2="244" y2="44" stroke="red" stroke-width="2" />
<line x1="281" y1="92" x2="282" y2="82" stroke="red" stroke-width="2" />
<line x1="282" y1="82" x2="285" y2="65" stroke="red" stroke-width="2" />
<line x1="576" y1="131" x2="578" y2="100" stroke="red" stroke-width="2" />
<line x1="518" y1="107" x2="524" y2="100" stroke="red" stroke-width="2" />
<line x1="524" y1="100" x2="534" y2="85" stroke="red" stroke-width="2" />
<line x1="423" y1="131" x2="421" y2="100" stroke="red" stroke-width="2" />
<line x1="481" y1="107" x2="475" y2="100" stroke="red" stroke-width="2" />
<line x1="475" y1="100" x2="465" y2="85" stroke="red" stroke-width="2" />
<line x1="576" y1="68" x2="555" y2="44" stroke="red" stroke-width="2" />
<line x1="518" y1="92" x2="517" y2="82" stroke="red" stroke-width="2" />
<line x1="517" y1="82" x2="514" y2="65" stroke="red" stroke-width="2" />
<line x1="493" y1="200" x2="468" y2="176" stroke="red" stroke-width="2" />
<line x1="468" y1="176" x2="444" y2="155" stroke="red" stroke-width="2" />
<line x1="492" y1="118" x2="482" y2="117" stroke="red" stroke-width="2" />
<line x1="482" y1="117" x2="465" y2="114" stroke="red" stroke-width="2" />
<line x1="531" y1="23" x2="500" y2="21" stroke="red" stroke-width="2" />
<line x1="507" y1="81" x2="500" y2="75" stroke="red" stroke-width="2" />
<line x1="500" y1="75" x2="485" y2="65" stroke="red" stroke-width="2" />
<line x1="531" y1="176" x2="500" y2="178" stroke="red" stroke-width="2" />
<line x1="507" y1="118" x2="500" y2="124" stroke="red" stroke-width="2" />
<line x1="500" y1="124" x2="485" y2="134" stroke="red" stroke-width="2" />
<line x1="468" y1="23" x2="444" y2="44" stroke="red" stroke-width="2" />
<line x1="492" y1="81" x2="482" y2="82" stroke="red" stroke-width="2" />
<line x1="482" y1="82" x2="465" y2="85" stroke="red" stroke-width="2" />
<line x1="576" y1="131" x2="555" y2="155" stroke="red" stroke-width="2" />
<line x1="518" y1="107" x2="517" y2="117" stroke="red" stroke-width="2" />
<line x1="517" y1="117" x2="514" y2="134" stroke="red" stroke-width="2" />
<line x1="423" y1="68" x2="421" y2="99" stroke="red" stroke-width="2" />
<line x1="481" y1="92" x2="475" y2="100" stroke="red" stroke-width="2" />
<line x1="475" y1="100" x2="465" y2="114" stroke="red" stroke-width="2" />
<line x1="576" y1="68" x2="578" y2="100" stroke="red" stroke-width="2" />
<line x1="518" y1="92" x2="524" y2="100" stroke="red" stroke-width="2" />
<line x1="524" y1="100" x2="534" y2="114" stroke="red" stroke-width="2" />
<line x1="400" y1="106" x2="423" y2="131" stroke="red" stroke-width="2" />
<line x1="423" y1="131" x2="444" y2="155" stroke="red" stroke-width="2" />
<line x1="481" y1="107" x2="482" y2="117" stroke="red" stroke-width="2" />
<line x1="482" y1="117" x2="485" y2="134" stroke="red" stroke-width="2" />
<line x1="531" y1="23" x2="555" y2="44" stroke="red" stroke-width="2" />
<line x1="507" y1="81" x2="517" y2="82" stroke="red" stroke-width="2" />
<line x1="517" y1="82" x2="534" y2="85" stroke="red" stroke-width="2" />
<line x1="468" y1="176" x2="500" y2="178" stroke="red" stroke-width="2" />
<line x1="492" y1="118" x2="500" y2="124" stroke="red" stroke-width="2" />
<line x1="500" y1="124" x2="514" y2="134" stroke="red" stroke-width="2" />
<line x1="468" y1="23" x2="500" y2="21" stroke="red" stroke-width="2" />
<line x1="492" y1="81" x2="500" y2="75" stroke="red" stroke-width="2" />
<line x1="500" y1="75" x2="514" y2="65" stroke="red" stroke-width="2" />
<line x1="506" y1="200" x2="531" y2="176" stroke="red" stroke-width="2" />
<line x1="531" y1="176" x2="555" y2="155" stroke="red" stroke-width="2" />
<line x1="507" y1="118" x2="517" y2="117" stroke="red" stroke-width="2" />
<line x1="517" y1="117" x2="534" y2="114" stroke="red" stroke-width="2" />
<line x1="400" y1="93" x2="423" y2="68" stroke="red" stroke-width="2" />
<line x1="423" y1="68" x2="444" y2="44" stroke="red" stroke-width="2" />
<line x1="481" y1="92" x2="482" y2="82" stroke="red" stroke-width="2" />
<line x1="482" y1="82" x2="485" y2="65" stroke="red" stroke-width="2" />
<line x1="176" y1="331" x2="178" y2="300" stroke="red" stroke-width="2" />
<line x1="118" y1="307" x2="124" y2="300" stroke="red" stroke-width="2" />
<line x1="124" y1="300" x2="134" y2="285" stroke="red" stroke-width="2" />
<line x1="23" y1="331" x2="21" y2="300" stroke="red" stroke-width="2" />
<line x1="81" y1="307" x2="75" y2="300" stroke="red" stroke-width="2" />
<line x1="75" y1="300" x2="65" y2="285" stroke="red" stroke-width="2" />
<line x1="200" y1="293" x2="176" y2="268" stroke="red" stroke-width="2" />
<line x1="176" y1="268" x2="155" y2="244" stroke="red" stroke-width="2" />
<line x1="118" y1="292" x2="117" y2="282" stroke="red" stroke-width="2" />
<line x1="117" y1="282" x2="114" y2="265" stroke="red" stroke-width="2" />
<line x1="93" y1="400" x2="68" y2="376" stroke="red" stroke-width="2" />
<line x1="68" y1="376" x2="44" y2="355" stroke="red" stroke-width="2" />
<line x1="92" y1="318" x2="82" y2="317" stroke="red" stroke-width="2" />
<line x1="82" y1="317" x2="65" y2="314" stroke="red" stroke-width="2" />
<line x1="131" y1="223" x2="100" y2="221" stroke="red" stroke-width="2" />
<line x1="107" y1="281" x2="100" y2="275" stroke="red" stroke-width="2" />
<line x1="100" y1="275" x2="85" y2="265" stroke="red" stroke-width="2" />
<line x1="131" y1="376" x2="100" y2="378" stroke="red" stroke-width="2" />
<line x1="107" y1="318" x2="100" y2="324" stroke="red" stroke-width="2" />
<line x1="100" y1="324" x2="85" y2="334" stroke="red" stroke-width="2" />
<line x1="93" y1="200" x2="68" y2="223" stroke="red" stroke-width="2" />
<line x1="68" y1="223" x2="44" y2="244" stroke="red" stroke-width="2" />
<line x1="92" y1="281" x2="82" y2="282" stroke="red" stroke-width="2" />
<line x1="82" y1="282" x2="65" y2="285" stroke="red" stroke-width="2" />
<line x1="200" y1="306" x2="176" y2="331" stroke="red" stroke-width="2" />
<line x1="176" y1="331" x2="155" y2="355" stroke="red" stroke-width="2" />
<line x1="118" y1="307" x2="117" y2="317" stroke="red" stroke-width="2" />
<line x1="117" y1="317" x2="114" y2="334" stroke="red" stroke-width="2" />
<line x1="23" y1="268" x2="21" y2="300" stroke="red" stroke-width="2" />
<line x1="81" y1="292" x2="75" y2="300" stroke="red" stroke-width="2" />
<line x1="75" y1="300" x2="65" y2="314" stroke="red" stroke-width="2" />
<line x1="176" y1="268" x2="178" y2="300" stroke="red" stroke-width="2" />
<line x1="118" y1="292" x2="124" y2="300" stroke="red" stroke-width="2" />
<line x1="124" y1="300" x2="134" y2="314" stroke="red" stroke-width="2" />
<line x1="23" y1="331" x2="44" y2="355" stroke="red" stroke-width="2" />
<line x1="81" y1="307" x2="82" y2="317" stroke="red" stroke-width="2" />
<line x1="82" y1="317" x2="85" y2="334" stroke="red" stroke-width="2" />
<line x1="106" y1="199" x2="131" y2="223" stroke="red" stroke-width="2" />
<line x1="131" y1="223" x2="155" y2="244" stroke="red" stroke-width="2" />
<line x1="107" y1="281" x2="117" y2="282" stroke="red" stroke-width="2" />
<line x1="117" y1="282" x2="134" y2="285" stroke="red" stroke-width="2" />
<line x1="68" y1="376" x2="100" y2="378" stroke="red" stroke-width="2" />
<line x1="92" y1="318" x2="100" y2="324" stroke="red" stroke-width="2" />
<line x1="100" y1="324" x2="114" y2="334" stroke="red" stroke-width="2" />
<line x1="68" y1="223" x2="100" y2="221" stroke="red" stroke-width="2" />
<line x1="92" y1="281" x2="100" y2="275" stroke="red" stroke-width="2" />
<line x1="100" y1="275" x2="114" y2="265" stroke="red" stroke-width="2" />
<line x1="106" y1="400" x2="131" y2="376" stroke="red" stroke-width="2" />
<line x1="131" y1="376" x2="155" y2="355" stroke="red" stroke-width="2" />
<line x1="107" y1="318" x2="117" y2="317" stroke="red" stroke-width="2" />
<line x1="117" y1="317" x2="134" y2="314" stroke="red" stroke-width="2" />
<line x1="23" y1="268" x2="44" y2="244" stroke="red" stroke-width="2" />
<line x1="81" y1="292" x2="82" y2="282" stroke="red" stroke-width="2" />
<line x1="82" y1="282" x2="85" y2="265" stroke="red" stroke-width="2" />
<line x1="376" y1="331" x2="378" y2="300" stroke="red" stroke-width="2" />
<line x1="318" y1="307" x2="324" y2="300" stroke="red" stroke-width="2" />
<line x1="324" y1="300" x2="334" y2="285" stroke="red" stroke-width="2" />
<line x1="223" y1="331" x2="221" y2="300" stroke="red" stroke-width="2" />
<line x1="281" y1="307" x2="275" y2="300" stroke="red" stroke-width="2" />
<line x1="275" y1="300" x2="265" y2="285" stroke="red" stroke-width="2" />
<line x1="400" y1="293" x2="376" y2="268" stroke="red" stroke-width="2" />
<line x1="376" y1="268" x2="355" y2="244" stroke="red" stroke-width="2" />
<line x1="318" y1="292" x2="317" y2="282" stroke="red" stroke-width="2" />
<line x1="317" y1="282" x2="314" y2="265" stroke="red" stroke-width="2" />
<line x1="293" y1="400" x2="268" y2="376" stroke="red" stroke-width="2" />
<line x1="268" y1="376" x2="244" y2="355" stroke="red" stroke-width="2" />
<line x1="292" y1="318" x2="282" y2="317" stroke="red" stroke-width="2" />
<line x1="282" y1="317" x2="265" y2="314" stroke="red" stroke-width="2" />
<line x1="331" y1="223" x2="300" y2="221" stroke="red" stroke-width="2" />
<line x1="307" y1="281" x2="300" y2="275" stroke="red" stroke-width="2" />
<line x1="300" y1="275" x2="285" y2="265" stroke="red" stroke-width="2" />
<line x1="331" y1="376" x2="300" y2="378" stroke="red" stroke-width="2" />
<line x1="307" y1="318" x2="300" y2="324" stroke="red" stroke-width="2" />
<line x1="300" y1="324" x2="285" y2="334" stroke="red" stroke-width="2" />
<line x1="293" y1="200" x2="268" y2="223" stroke="red" stroke-width="2" />
<line x1="268" y1="223" x2="244" y2="244" stroke="red" stroke-width="2" />
<line x1="292" y1="281" x2="282" y2="282" stroke="red" stroke-width="2" />
<line x1="282" y1="282" x2="265" y2="285" stroke="red" stroke-width="2" />
<line x1="400" y1="306" x2="376" y2="331" stroke="red" stroke-width="2" />
<line x1="376" y1="331" x2="355" y2="355" stroke="red" stroke-width="2" />
<line x1="318" y1="307" x2="317" y2="317" stroke="red" stroke-width="2" />
<line x1="317" y1="317" x2="314" y2="334" stroke="red" stroke-width="2" />
<line x1="223" y1="268" x2="221" y2="300" stroke="red" stroke-width="2" />
<line x1="281" y1="292" x2="275" y2="300" stroke="red" stroke-width="2" />
<line x1="275" y1="300" x2="265" y2="314" stroke="red" stroke-width="2" />
<line x1="376" y1="268" x2="378" y2="300" stroke="red" stroke-width="2" />
<line x1="318" y1="292" x2="324" y2="300" stroke="red" stroke-width="2" />
<line x1="324" y1="300" x2="334" y2="314" stroke="red" stroke-width="2" />
<line x1="200" y1="306" x2="223" y2="331" stroke="red" stroke-width="2" />
<line x1="223" y1="331" x2="244" y2="355" stroke="red" stroke-width="2" />
<line x1="281" y1="307" x2="282" y2="317" stroke="red" stroke-width="2" />
<line x1="282" y1="317" x2="285" y2="334" stroke="red" stroke-width="2" />
<line x1="306" y1="200" x2="331" y2="223" stroke="red" stroke-width="2" />
<line x1="331" y1="223" x2="355" y2="244" stroke="red" stroke-width="2" />
<line x1="307" y1="281" x2="317" y2="282" stroke="red" stroke-width="2" />
<line x1="317" y1="282" x2="334" y2="285" stroke="red" stroke-width="2" />
<line x1="268" y1="376" x2="300" y2="378" stroke="red" stroke-width="2" />
<line x1="292" y1="318" x2="300" y2="324" stroke="red" stroke-width="2" />
<line x1="300" y1="324" x2="314" y2="334" stroke="red" stroke-width="2" />
<line x1="268" y1="223" x2="300" y2="221" stroke="red" stroke-width="2" />
<line x1="292" y1="281" x2="300" y2="275" stroke="red" stroke-width="2" />
<line x1="300" y1="275" x2="314" y2="265" stroke="red" stroke-width="2" />
<line x1="306" y1="400" x2="331" y2="376" stroke="red" stroke-width="2" />
<line x1="331" y1="376" x2="355" y2="355" stroke="red" stroke-width="2" />
<line x1="307" y1="318" x2="317" y2="317" stroke="red" stroke-width="2" />
<line x1="317" y1="317" x2="334" y2="314" stroke="red" stroke-width="2" />
<line x1="200" y1="293" x2="223" y2="268" stroke="red" stroke-width="2" />
<line x1="223" y1="268" x2="244" y2="244" stroke="red" stroke-width="2" />
<line x1="281" y1="292" x2="282" y2="282" stroke="red" stroke-width="2" />
<line x1="282" y1="282" x2="285" y2="265" stroke="red" stroke-width="2" />
<line x1="576" y1="331" x2="578" y2="300" stroke="red" stroke-width="2" />
<line x1="518" y1="307" x2="524" y2="300" stroke="red" stroke-width="2" />
<line x1="524" y1="300" x2="534" y2="285" stroke="red" stroke-width="2" />
<line x1="423" y1="331" x2="421" y2="300" stroke="red" stroke-width="2" />
<line x1="481" y1="307" x2="475" y2="300" stroke="red" stroke-width="2" />
<line x1="475" y1="300" x2="465" y2="285" stroke="red" stroke-width="2" />
<line x1="576" y1="268" x2="555" y2="244" stroke="red" stroke-width="2" />
<line x1="518" y1="292" x2="517" y2="282" stroke="red" stroke-width="2" />
<line x1="517" y1="282" x2="514" y2="265" stroke="red" stroke-width="2" />
<line x1="493" y1="400" x2="468" y2="376" stroke="red" stroke-width="2" />
<line x1="468" y1="376" x2="444" y2="355" stroke="red" stroke-width="2" />
<line x1="492" y1="318" x2="482" y2="317" stroke="red" stroke-width="2" />
<line x1="482" y1="317" x2="465" y2="314" stroke="red" stroke-width="2" />
<line x1="531" y1="223" x2="500" y2="221" stroke="red" stroke-width="2" />
<line x1="507" y1="281" x2="500" y2="275" stroke="red" stroke-width="2" />
<line x1="500" y1="275" x2="485" y2="265" stroke="red" stroke-width="2" />
<line x1="531" y1="376" x2="500" y2="378" stroke="red" stroke-width="2" />
<line x1="507" y1="318" x2="500" y2="324" stroke="red" stroke-width="2" />
<line x1="500" y1="324" x2="485" y2="334" stroke="red" stroke-width="2" />
<line x1="493" y1="200" x2="468" y2="223" stroke="red" stroke-width="2" />
<line x1="468" y1="223" x2="444" y2="244" stroke="red" stroke-width="2" />
<line x1="492" y1="281" x2="482" y2="282" stroke="red" stroke-width="2" />
<line x1="482" y1="282" x2="465" y2="285" stroke="red" stroke-width="2" />
<line x1="576" y1="331" x2="555" y2="355" stroke="red" stroke-width="2" />
<line x1="518" y1="307" x2="517" y2="317" stroke="red" stroke-width="2" />
<line x1="517" y1="317" x2="514" y2="334" stroke="red" stroke-width="2" />
<line x1="423" y1="268" x2="421" y2="300" stroke="red" stroke-width="2" />
<line x1="481" y1="292" x2="475" y2="300" stroke="red" stroke-width="2" />
<line x1="475" y1="300" x2="465" y2="314" stroke="red" stroke-width="2" />
<line x1="576" y1="268" x2="578" y2="300" stroke="red" stroke-width="2" />
<line x1="518" y1="292" x2="524" y2="300" stroke="red" stroke-width="2" />
<line x1="524" y1="300" x2="534" y2="314" stroke="red" stroke-width="2" />
<line x1="400" y1="306" x2="423" y2="331" stroke="red" stroke-width="2" />
<line x1="423" y1="331" x2="444" y2="355" stroke="red" stroke-width="2" />
<line x1="481" y1="307" x2="482" y2="317" stroke="red" stroke-width="2" />
<line x1="482" y1="317" x2="485" y2="334" stroke="red" stroke-width="2" />
<line x1="506" y1="200" x2="531" y2="223" stroke="red" stroke-width="2" />
<line x1="531" y1="223" x2="555" y2="244" stroke="red" stroke-width="2" />
<line x1="507" y1="281" x2="517" y2="282" stroke="red" stroke-width="2" />
<line x1="517" y1="282" x2="534" y2="285" stroke="red" stroke-width="2" />
<line x1="468" y1="376" x2="500" y2="378" stroke="red" stroke-width="2" />
<line x1="492" y1="318" x2="500" y2="324" stroke="red" stroke-width="2" />
<line x1="500" y1="324" x2="514" y2="334" stroke="red" stroke-width="2" />
<line x1="468" y1="223" x2="500" y2="221" stroke="red" stroke-width="2" />
<line x1="492" y1="281" x2="500" y2="275" stroke="red" stroke-width="2" />
<line x1="500" y1="275" x2="514" y2="265" stroke="red" stroke-width="2" />
<line x1="506" y1="400" x2="531" y2="376" stroke="red" stroke-width="2" />
<line x1="531" y1="376" x2="555" y2="355" stroke="red" stroke-width="2" />
<line x1="507" y1="318" x2="517" y2="317" stroke="red" stroke-width="2" />
<line x1="517" y1="317" x2="534" y2="314" stroke="red" stroke-width="2" />
<line x1="400" y1="293" x2="423" y2="268" stroke="red" stroke-width="2" />
<line x1="423" y1="268" x2="444" y2="244" stroke="red" stroke-width="2" />
<line x1="481" y1="292" x2="482" y2="282" stroke="red" stroke-width="2" />
<line x1="482" y1="282" x2="485" y2="265" stroke="red" stroke-width="2" />
<line x1="176" y1="531" x2="178" y2="500" stroke="red" stroke-width="2" />
<line x1="118" y1="507" x2="124" y2="500" stroke="red" stroke-width="2" />
<line x1="124" y1="500" x2="134" y2="485" stroke="red" stroke-width="2" />
<line x1="23" y1="531" x2="21" y2="500" stroke="red" stroke-width="2" />
<line x1="81" y1="507" x2="75" y2="500" stroke="red" stroke-width="2" />
<line x1="75" y1="500" x2="65" y2="485" stroke="red" stroke-width="2" />
<line x1="200" y1="493" x2="176" y2="468" stroke="red" stroke-width="2" />
<line x1="176" y1="468" x2="155" y2="444" stroke="red" stroke-width="2" />
<line x1="118" y1="492" x2="117" y2="482" stroke="red" stroke-width="2" />
<line x1="117" y1="482" x2="114" y2="465" stroke="red" stroke-width="2" />
<line x1="68" y1="576" x2="44" y2="555" stroke="red" stroke-width="2" />
<line x1="92" y1="518" x2="82" y2="517" stroke="red" stroke-width="2" />
<line x1="82" y1="517" x2="65" y2="514" stroke="red" stroke-width="2" />
<line x1="131" y1="423" x2="100" y2="421" stroke="red" stroke-width="2" />
<line x1="107" y1="481" x2="100" y2="475" stroke="red" stroke-width="2" />
<line x1="100" y1="475" x2="85" y2="465" stroke="red" stroke-width="2" />
<line x1="131" y1="576" x2="100" y2="578" stroke="red" stroke-width="2" />
<line x1="107" y1="518" x2="100" y2="524" stroke="red" stroke-width="2" />
<line x1="100" y1="524" x2="85" y2="534" stroke="red" stroke-width="2" />
<line x1="93" y1="400" x2="68" y2="423" stroke="red" stroke-width="2" />
<line x1="68" y1="423" x2="44" y2="444" stroke="red" stroke-width="2" />
<line x1="92" y1="481" x2="82" y2="482" stroke="red" stroke-width="2" />
<line x1="82" y1="482" x2="65" y2="485" stroke="red" stroke-width="2" />
<line x1="200" y1="506" x2="176" y2="531" stroke="red" stroke-width="2" />
<line x1="176" y1="531" x2="155" y2="555" stroke="red" stroke-width="2" />
<line x1="118" y1="507" x2="117" y2="517" stroke="red" stroke-width="2" />
<line x1="117" y1="517" x2="114" y2="534" stroke="red" stroke-width="2" />
<line x1="23" y1="468" x2="21" y2="500" stroke="red" stroke-width="2" />
<line x1="81" y1="492" x2="75" y2="500" stroke="red" stroke-width="2" />
<line x1="75" y1="500" x2="65" y2="514" stroke="red" stroke-width="2" />
<line x1="176" y1="468" x2="178" y2="500" stroke="red" stroke-width="2" />
<line x1="118" y1="492" x2="124" y2="500" stroke="red" stroke-width="2" />
<line x1="124" y1="500" x2="134" y2="514" stroke="red" stroke-width="2" />
<line x1="23" y1="531" x2="44" y2="555" stroke="red" stroke-width="2" />
<line x1="81" y1="507" x2="82" y2="517" stroke="red" stroke-width="2" />
<line x1="82" y1="517" x2="85" y2="534" stroke="red" stroke-width="2" />
<line x1="106" y1="400" x2="131" y2="423" stroke="red" stroke-width="2" />
<line x1="131" y1="423" x2="155" y2="444" stroke="red" stroke-width="2" />
<line x1="107" y1="481" x2="117" y2="482" stroke="red" stroke-width="2" />
<line x1="117" y1="482" x2="134" y2="485" stroke="red" stroke-width="2" />
<line x1="68" y1="576" x2="100" y2="578" stroke="red" stroke-width="2" />
<line x1="92" y1="518" x2="100" y2="524" stroke="red" stroke-width="2" />
<line x1="100" y1="524" x2="114" y2="534" stroke="red" stroke-width="2" />
<line x1="68" y1="423" x2="100" y2="421" stroke="red" stroke-width="2" />
<line x1="92" y1="481" x2="100" y2="475" stroke="red" stroke-width="2" />
<line x1="100" y1="475" x2="114" y2="465" stroke="red" stroke-width="2" />
<line x1="131" y1="576" x2="155" y2="555" stroke="red" stroke-width="2" />
<line x1="107" y1="518" x2="117" y2="517" stroke="red" stroke-width="2" />
<line x1="117" y1="517" x2="134" y2="514" stroke="red" stroke-width="2" />
<line x1="23" y1="468" x2="44" y2="444" stroke="red" stroke-width="2" />
<line x1="81" y1="492" x2="82" y2="482" stroke="red" stroke-width="2" />
<line x1="82" y1="482" x2="85" y2="465" stroke="red" stroke-width="2" />
<line x1="376" y1="531" x2="378" y2="500" stroke="red" stroke-width="2" />
<line x1="318" y1="507" x2="324" y2="500" stroke="red" stroke-width="2" />
<line x1="324" y1="500" x2="334" y2="485" stroke="red" stroke-width="2" />
<line x1="223" y1="531" x2="221" y2="500" stroke="red" stroke-width="2" />
<line x1="281" y1="507" x2="275" y2="500" stroke="red" stroke-width="2" />
<line x1="275" y1="500" x2="265" y2="485" stroke="red" stroke-width="2" />
<line x1="400" y1="493" x2="376" y2="468" stroke="red" stroke-width="2" />
<line x1="376" y1="468" x2="355" y2="444" stroke="red" stroke-width="2" />
<line x1="318" y1="492" x2="317" y2="482" stroke="red" stroke-width="2" />
<line x1="317" y1="482" x2="314" y2="465" stroke="red" stroke-width="2" />
<line x1="268" y1="576" x2="244" y2="555" stroke="red" stroke-width="2" />
<line x1="292" y1="518" x2="282" y2="517" stroke="red" stroke-width="2" />
<line x1="282" y1="517" x2="265" y2="514" stroke="red" stroke-width="2" />
<line x1="331" y1="423" x2="300" y2="421" stroke="red" stroke-width="2" />
<line x1="307" y1="481" x2="300" y2="475" stroke="red" stroke-width="2" />
<line x1="300" y1="475" x2="285" y2="465" stroke="red" stroke-width="2" />
<line x1="331" y1="576" x2="300" y2="578" stroke="red" stroke-width="2" />
<line x1="307" y1="518" x2="300" y2="524" stroke="red" stroke-width="2" />
<line x1="300" y1="524" x2="285" y2="534" stroke="red" stroke-width="2" />
<line x1="293" y1="400" x2="268" y2="423" stroke="red" stroke-width="2" />
<line x1="268" y1="423" x2="244" y2="444" stroke="red" stroke-width="2" />
<line x1="292" y1="481" x2="282" y2="482" stroke="red" stroke-width="2" />
<line x1="282" y1="482" x2="265" y2="485" stroke="red" stroke-width="2" />
<line x1="400" y1="506" x2="376" y2="531" stroke="red" stroke-width="2" />
<line x1="376" y1="531" x2="355" y2="555" stroke="red" stroke-width="2" />
<line x1="318" y1="507" x2="317" y2="517" stroke="red" stroke-width="2" />
<line x1="317" y1="517" x2="314" y2="534" stroke="red" stroke-width="2" />
<line x1="223" y1="468" x2="221" y2="500" stroke="red" stroke-width="2" />
<line x1="281" y1="492" x2="275" y2="500" stroke="red" stroke-width="2" />
<line x1="275" y1="500" x2="265" y2="514" stroke="red" stroke-width="2" />
<line x1="376" y1="468" x2="378" y2="500" stroke="red" stroke-width="2" />
<line x1="318" y1="492" x2="324" y2="500" stroke="red" stroke-width="2" />
<line x1="324" y1="500" x2="334" y2="514" stroke="red" stroke-width="2" />
<line x1="200" y1="506" x2="223" y2="531" stroke="red" stroke-width="2" />
<line x1="223" y1="531" x2="244" y2="555" stroke="red" stroke-width="2" />
<line x1="281" y1="507" x2="282" y2="517" stroke="red" stroke-width="2" />
<line x1="282" y1="517" x2="285" y2="534" stroke="red" stroke-width="2" />
<line x1="306" y1="400" x2="331" y2="423" stroke="red" stroke-width="2" />
<line x1="331" y1="423" x2="355" y2="444" stroke="red" stroke-width="2" />
<line x1="307" y1="481" x2="317" y2="482" stroke="red" stroke-width="2" />
<line x1="317" y1="482" x2="334" y2="485" stroke="red" stroke-width="2" />
<line x1="268" y1="576" x2="300" y2="578" stroke="red" stroke-width="2" />
<line x1="292" y1="518" x2="300" y2="524" stroke="red" stroke-width="2" />
<line x1="300" y1="524" x2="314" y2="534" stroke="red" stroke-width="2" />
<line x1="268" y1="423" x2="300" y2="421" stroke="red" stroke-width="2" />
<line x1="292" y1="481" x2="300" y2="475" stroke="red" stroke-width="2" />
<line x1="300" y1="475" x2="314" y2="465" stroke="red" stroke-width="2" />
<line x1="331" y1="576" x2="355" y2="555" stroke="red" stroke-width="2" />
<line x1="307" y1="518" x2="317" y2="517" stroke="red" stroke-width="2" />
<line x1="317" y1="517" x2="334" y2="514" stroke="red" stroke-width="2" />
<line x1="200" y1="493" x2="223" y2="468" stroke="red" stroke-width="2" />
<line x1="223" y1="468" x2="244" y2="444" stroke="red" stroke-width="2" />
<line x1="281" y1="492" x2="282" y2="482" stroke="red" stroke-width="2" />
<line x1="282" y1="482" x2="285" y2="465" stroke="red" stroke-width="2" />
<line x1="576" y1="531" x2="578" y2="500" stroke="red" stroke-width="2" />
<line x1="518" y1="507" x2="524" y2="500" stroke="red" stroke-width="2" />
<line x1="524" y1="500" x2="534" y2="485" stroke="red" stroke-width="2" />
<line x1="423" y1="531" x2="421" y2="500" stroke="red" stroke-width="2" />
<line x1="481" y1="507" x2="475" y2="500" stroke="red" stroke-width="2" />
<line x1="475" y1="500" x2="465" y2="485" stroke="red" stroke-width="2" />
<line x1="576" y1="468" x2="555" y2="444" stroke="red" stroke-width="2" />
<line x1="518" y1="492" x2="517" y2="482" stroke="red" stroke-width="2" />
<line x1="517" y1="482" x2="514" y2="465" stroke="red" stroke-width="2" />
<line x1="468" y1="576" x2="444" y2="555" stroke="red" stroke-width="2" />
<line x1="492" y1="518" x2="482" y2="517" stroke="red" stroke-width="2" />
<line x1="482" y1="517" x2="465" y2="514" stroke="red" stroke-width="2" />
<line x1="531" y1="423" x2="500" y2="421" stroke="red" stroke-width="2" />
<line x1="507" y1="481" x2="500" y2="475" stroke="red" stroke-width="2" />
<line x1="500" y1="475" x2="485" y2="465" stroke="red" stroke-width="2" />
<line x1="531" y1="576" x2="500" y2="578" stroke="red" stroke-width="2" />
<line x1="507" y1="518" x2="500" y2="524" stroke="red" stroke-width="2" />
<line x1="500" y1="524" x2="485" y2="534" stroke="red" stroke-width="2" />
<line x1="493" y1="400" x2="468" y2="423" stroke="red" stroke-width="2" />
<line x1="468" y1="423" x2="444" y2="444" stroke="red" stroke-width="2" />
<line x1="492" y1="481" x2="482" y2="482" stroke="red" stroke-width="2" />
<line x1="482" y1="482" x2="465" y2="485" stroke="red" stroke-width="2" />
<line x1="576" y1="531" x2="555" y2="555" stroke="red" stroke-width="2" />
<line x1="518" y1="507" x2="517" y2="517" stroke="red" stroke-width="2" />
<line x1="517" y1="517" x2="514" y2="534" stroke="red" stroke-width="2" />
<line x1="423" y1="468" x2="421" y2="500" stroke="red" stroke-width="2" />
<line x1="481" y1="492" x2="475" y2="500" stroke="red" stroke-width="2" />
<line x1="475" y1="500" x2="465" y2="514" stroke="red" stroke-width="2" />
<line x1="576" y1="468" x2="578" y2="500" stroke="red" stroke-width="2" />
<line x1="518" y1="492" x2="524" y2="500" stroke="red" stroke-width="2" />
<line x1="524" y1="500" x2="534" y2="514" stroke="red" stroke-width="2" />
<line x1="400" y1="506" x2="423" y2="531" stroke="red" stroke-width="2" />
<line x1="423" y1="531" x2="444" y2="555" stroke="red" stroke-width="2" />
<line x1="481" y1="507" x2="482" y2="517" stroke="red" stroke-width="2" />
<line x1="482" y1="517" x2="485" y2="534" stroke="red" stroke-width="2" />
<line x1="506" y1="400" x2="531" y2="423" stroke="red" stroke-width="2" />
<line x1="531" y1="423" x2="555" y2="444" stroke="red" stroke-width="2" />
<line x1="507" y1="481" x2="517" y2="482" stroke="red" stroke-width="2" />
<line x1="517" y1="482" x2="534" y2="485" stroke="red" stroke-width="2" />
<line x1="468" y1="576" x2="500" y2="578" stroke="red" stroke-width="2" />
<line x1="492" y1="518" x2="500" y2="524" stroke="red" stroke-width="2" />
<line x1="500" y1="524" x2="514" y2="534" stroke="red" stroke-width="2" />
<line x1="468" y1="423" x2="500" y2="421" stroke="red" stroke-width="2" />
<line x1="492" y1="481" x2="500" y2="475" stroke="red" stroke-width="2" />
<line x1="500" y1="475" x2="514" y2="465" stroke="red" stroke-width="2" />
<line x1="531" y1="576" x2="555" y2="555" stroke="red" stroke-width="2" />
<line x1="507" y1="518" x2="517" y2="517" stroke="red" stroke-width="2" />
<line x1="517" y1="517" x2="534" y2="514" stroke="red" stroke-width="2" />
<line x1="400" y1="493" x2="423" y2="468" stroke="red" stroke-width="2" />
<line x1="423" y1="468" x2="444" y2="444" stroke="red" stroke-width="2" />
<line x1="481" y1="492" x2="482" y2="482" stroke="red" stroke-width="2" />
<line x1="482" y1="482" x2="485" y2="465" stroke="red" stroke-width="2" />
</svg>
